<svg width="32" height="32" viewBox="0 0 32 32" fill="none" xmlns="http://www.w3.org/2000/svg">
<rect width="32" height="32" rx="16" fill="#140800"/>
<path d="M4.95532 16.5094C4.95532 16.1766 4.95532 15.8438 4.95532 15.511C4.97495 15.319 4.99628 15.1279 5.01335 14.9359C5.02786 14.7806 5.0381 14.6244 5.05004 14.4683C5.05175 14.4478 5.05346 14.4273 5.05516 14.4077C5.06796 14.3317 5.08162 14.2558 5.09442 14.1798C5.09698 14.1602 5.09954 14.1397 5.1021 14.1201C5.1149 14.0561 5.1277 13.9913 5.1405 13.9273C5.14306 13.9085 5.14647 13.8889 5.14903 13.8701C5.16268 13.8086 5.17634 13.7472 5.18914 13.6858C5.19084 13.673 5.19255 13.661 5.19426 13.6482C5.219 13.5697 5.24802 13.4912 5.26764 13.4118C5.30775 13.2471 5.34359 13.0816 5.38114 12.9161C5.38455 12.9033 5.38711 12.8905 5.39052 12.8785C5.40247 12.8393 5.41527 12.8 5.42722 12.7616C5.42978 12.7488 5.43319 12.736 5.43575 12.7241C5.45111 12.7002 5.47074 12.6771 5.48012 12.6507C5.53559 12.4911 5.58935 12.3315 5.64396 12.1711C5.68407 12.0542 5.72332 11.9373 5.76343 11.8204C5.76684 11.8084 5.77026 11.7965 5.77282 11.7845C5.83938 11.6352 5.90508 11.4859 5.97164 11.3365C5.98444 11.3101 5.99724 11.2845 6.01004 11.258C6.03991 11.1949 6.07063 11.1309 6.1005 11.0677C6.10562 11.0566 6.11074 11.0455 6.11586 11.0345C6.13463 11.002 6.15255 10.9696 6.17132 10.9372C6.17815 10.9261 6.18498 10.915 6.19095 10.9039C6.19948 10.886 6.20802 10.8681 6.21655 10.8501C6.22338 10.8382 6.2302 10.8271 6.23703 10.8151C6.24471 10.7972 6.25239 10.7785 6.26092 10.7605C6.26348 10.7554 6.2669 10.7503 6.27202 10.746C6.34967 10.6103 6.42647 10.4738 6.50412 10.3381C6.50668 10.333 6.5101 10.3287 6.51436 10.3245C6.53399 10.2929 6.55276 10.2613 6.57239 10.2289C6.5741 10.2229 6.57666 10.2178 6.58007 10.2127C6.59202 10.1956 6.60311 10.1786 6.61506 10.1606C6.63554 10.1274 6.65516 10.0932 6.67564 10.0599C6.72258 9.98997 6.76866 9.92085 6.81559 9.85088C6.8173 9.84491 6.82071 9.83979 6.82412 9.83552C6.83607 9.81845 6.84802 9.80139 6.85996 9.78432C6.86167 9.77835 6.86423 9.77323 6.8685 9.76896C6.8813 9.75275 6.8941 9.73653 6.9069 9.72032C6.90946 9.7152 6.91287 9.70923 6.91628 9.70496C6.94871 9.65803 6.98199 9.61024 7.01442 9.56331C7.04002 9.52917 7.06562 9.49504 7.09207 9.46091C7.10402 9.44384 7.11596 9.42677 7.12791 9.41056C7.1373 9.39776 7.14754 9.38496 7.15692 9.37131C7.16972 9.35509 7.18338 9.33973 7.19618 9.32352C7.21239 9.30219 7.2286 9.28085 7.24482 9.25952C7.25762 9.24331 7.27042 9.22709 7.28322 9.21003C7.32247 9.15968 7.36172 9.11019 7.40098 9.05984C7.4206 9.03595 7.44023 9.0112 7.45986 8.98731C7.51532 8.92331 7.57079 8.85931 7.62626 8.79531C7.64588 8.77141 7.66466 8.74752 7.68428 8.72363C7.72268 8.68096 7.76194 8.63744 7.80034 8.59477C7.83618 8.55723 7.87202 8.51968 7.90786 8.48213C7.92151 8.46592 7.93516 8.44971 7.94796 8.43435C8.10327 8.27904 8.25772 8.12288 8.41303 7.96757C8.42924 7.95392 8.4446 7.94027 8.46082 7.92661C8.48983 7.89675 8.5197 7.86688 8.54871 7.83701C8.56492 7.82336 8.58114 7.81056 8.59735 7.79691C8.64002 7.75851 8.68354 7.72011 8.7262 7.68171C8.7501 7.66208 8.77484 7.6416 8.79874 7.62197C8.97367 7.47947 9.14946 7.33611 9.32439 7.1936C9.3406 7.17995 9.35682 7.16715 9.37303 7.15349C9.38583 7.14411 9.39863 7.13472 9.41143 7.12533C9.42935 7.11424 9.44642 7.10229 9.46434 7.0912C9.55052 7.02891 9.63671 6.96747 9.7229 6.90517C9.73996 6.89323 9.75703 6.88128 9.77495 6.86933C9.90551 6.78485 10.0361 6.70037 10.1658 6.61589C10.1828 6.60395 10.2008 6.592 10.2178 6.58091C10.2366 6.56981 10.2562 6.55787 10.275 6.54677C10.2938 6.53739 10.3125 6.52715 10.3305 6.51776C10.3356 6.5152 10.3407 6.51179 10.3441 6.50752C10.362 6.49728 10.38 6.48619 10.3979 6.47595C10.432 6.45717 10.4661 6.4384 10.4994 6.41963C10.5173 6.40853 10.5344 6.39744 10.5523 6.38635C10.5771 6.37184 10.6027 6.35733 10.6274 6.34368C10.6453 6.33429 10.6641 6.32491 10.682 6.31467C10.7017 6.30443 10.7213 6.29419 10.7409 6.28395C10.8766 6.21312 11.0123 6.14229 11.148 6.07061C11.1591 6.06464 11.1701 6.05952 11.1812 6.05355C11.2 6.04501 11.2188 6.03648 11.2376 6.02709C11.264 6.016 11.2913 6.00576 11.3178 5.99467C11.3511 5.97845 11.3843 5.96309 11.4185 5.94688C11.4296 5.94091 11.4407 5.93493 11.4517 5.92896C11.5337 5.89227 11.6147 5.85557 11.6967 5.81973C11.718 5.81205 11.7402 5.80352 11.7615 5.79584C11.7769 5.78816 11.7922 5.78048 11.8067 5.7728C11.8195 5.76939 11.8323 5.76512 11.8451 5.76171C11.8639 5.75403 11.8827 5.74549 11.9015 5.73781C11.9347 5.72501 11.968 5.71307 12.0013 5.70027C12.0201 5.69173 12.0397 5.68405 12.0585 5.67552C12.0772 5.6704 12.0952 5.66528 12.1139 5.66016C12.1447 5.64736 12.1754 5.63371 12.2052 5.62091C12.2189 5.61835 12.2317 5.61493 12.2453 5.61237C12.2761 5.60043 12.3076 5.58763 12.3384 5.57568C12.352 5.57312 12.3648 5.57056 12.3785 5.56715C12.4092 5.55349 12.4408 5.54069 12.4715 5.52704C12.4843 5.52363 12.4971 5.52107 12.5099 5.51765C12.5415 5.50656 12.573 5.49547 12.6046 5.48437C12.6174 5.48181 12.6311 5.4784 12.6439 5.47584C12.6857 5.46219 12.7275 5.44768 12.7693 5.43403C12.7812 5.43147 12.7932 5.42891 12.8043 5.42635C12.8444 5.41355 12.8836 5.40075 12.9237 5.38795C12.9493 5.38197 12.9749 5.37685 13.0005 5.37088C13.1055 5.34272 13.2096 5.31371 13.3146 5.28555C13.3282 5.28384 13.341 5.28128 13.3547 5.27957C13.4008 5.26677 13.446 5.25483 13.4921 5.24203C13.5125 5.23947 13.533 5.23691 13.5544 5.2352C13.6073 5.22155 13.661 5.20789 13.7139 5.19509C13.7267 5.19339 13.7404 5.19083 13.7532 5.18912C13.8138 5.17632 13.8744 5.16267 13.9358 5.14987C13.9657 5.14645 13.9955 5.14304 14.0245 5.13963C14.0868 5.12683 14.1491 5.11403 14.2114 5.10208C14.2379 5.09952 14.2643 5.09696 14.2908 5.0944C14.4239 5.07648 14.557 5.05941 14.6901 5.04149C14.7038 5.03979 14.7175 5.03893 14.7311 5.03723C14.8506 5.02443 14.97 5.01163 15.0904 4.99883C15.1262 4.99797 15.1629 4.99712 15.1987 4.99627C15.3754 4.99371 15.552 4.99115 15.7287 4.98773C16.006 4.99285 16.2833 4.99883 16.5607 5.00309C16.6767 5.0048 16.7928 5.00395 16.9088 5.00395C16.9515 5.00736 16.9941 5.00992 17.0368 5.01333C17.1273 5.02443 17.2177 5.03637 17.3082 5.04747C17.3432 5.05088 17.379 5.05429 17.414 5.05771C17.4899 5.06965 17.565 5.08075 17.641 5.09269C17.676 5.09696 17.7118 5.10123 17.7468 5.10464C17.8074 5.11573 17.8688 5.12683 17.9294 5.13877C17.9593 5.14219 17.9883 5.14645 18.0181 5.14987C18.0736 5.16181 18.1291 5.17461 18.1837 5.18656C18.2025 5.18912 18.2212 5.19168 18.24 5.19424C18.2946 5.20789 18.3492 5.22155 18.4039 5.23435C18.4158 5.23605 18.4277 5.23776 18.4397 5.24032C18.5728 5.27189 18.7059 5.30432 18.8391 5.33589C18.8519 5.33931 18.8655 5.34187 18.8783 5.34528C18.9167 5.35723 18.9551 5.36917 18.9944 5.38112C19.008 5.38368 19.0208 5.38539 19.0345 5.38795C19.0729 5.40075 19.1113 5.41355 19.1497 5.42635C19.1633 5.42891 19.1761 5.43061 19.1898 5.43317C19.2316 5.44768 19.2734 5.46133 19.3152 5.47584C19.3272 5.4784 19.3383 5.48011 19.3502 5.48267C19.3835 5.49547 19.4159 5.50741 19.4492 5.52021C19.4603 5.52277 19.4722 5.52533 19.4833 5.52789C19.5157 5.54069 19.549 5.55264 19.5815 5.56544C19.6062 5.57312 19.6309 5.57995 19.6565 5.58763C19.6753 5.59616 19.6941 5.60469 19.7129 5.61323C19.7385 5.62005 19.7641 5.62603 19.7897 5.63285C19.8579 5.66016 19.9253 5.68832 19.9936 5.71563C20.0064 5.71904 20.0201 5.72245 20.0329 5.72672C20.0568 5.73781 20.0807 5.74891 20.1045 5.75915C20.1173 5.76341 20.131 5.76768 20.1438 5.77109C20.1711 5.78389 20.1984 5.79669 20.2257 5.80949C20.2436 5.81547 20.2616 5.82144 20.2795 5.82741C20.3503 5.85813 20.422 5.88885 20.4928 5.91957C20.5244 5.93493 20.5568 5.95029 20.5884 5.9648C20.6225 5.98016 20.6567 5.99467 20.6908 6.01003C20.701 6.016 20.7113 6.02283 20.7215 6.0288C20.7403 6.03819 20.7591 6.04672 20.7787 6.05611C20.7898 6.06123 20.8 6.0672 20.8111 6.07232C20.8299 6.08171 20.8487 6.09109 20.8674 6.10133C20.8785 6.1056 20.8896 6.11072 20.9007 6.11499C20.9186 6.12523 20.9374 6.13547 20.9553 6.14571C20.9664 6.14997 20.9784 6.15424 20.9895 6.15851C21.0074 6.1696 21.0253 6.18069 21.0432 6.19179C21.0552 6.19605 21.0663 6.20032 21.0782 6.20373C21.1243 6.23019 21.1712 6.25749 21.2173 6.28395C21.2292 6.28907 21.242 6.29333 21.254 6.29845C21.2711 6.30869 21.2881 6.31893 21.3052 6.32917C21.3257 6.33941 21.3453 6.34965 21.3658 6.36075C21.3982 6.37952 21.4298 6.39829 21.4622 6.41707C21.4818 6.42816 21.5015 6.4384 21.5211 6.44949C21.5535 6.46827 21.5851 6.48704 21.6175 6.50581C21.7412 6.58176 21.865 6.65856 21.9887 6.73451C22.0058 6.74645 22.0228 6.75925 22.0391 6.7712C22.045 6.77205 22.0501 6.77461 22.0544 6.77888C22.0715 6.79083 22.0885 6.80363 22.1056 6.81557C22.1116 6.81643 22.1167 6.81899 22.121 6.82325C22.1372 6.83605 22.1543 6.848 22.1705 6.8608C22.1978 6.87872 22.2251 6.89749 22.2524 6.91541C22.2686 6.92736 22.2857 6.93931 22.3019 6.95125C22.6995 7.27125 23.0963 7.59125 23.494 7.91125C23.6928 8.11093 23.8916 8.31061 24.0905 8.51115C24.1826 8.61184 24.2748 8.71253 24.3661 8.81408C24.3857 8.83883 24.4053 8.86272 24.425 8.88747C24.5316 9.01803 24.6383 9.14859 24.7441 9.27915C24.7629 9.30389 24.7817 9.32864 24.8013 9.35339C24.8115 9.36619 24.8209 9.37899 24.8312 9.39093C24.8431 9.408 24.8559 9.42507 24.8679 9.44213C24.8935 9.47627 24.9182 9.51125 24.9438 9.54539C24.9558 9.56245 24.9685 9.57952 24.9805 9.59659C24.9899 9.61024 24.9984 9.62304 25.0078 9.63669C25.0351 9.67595 25.0624 9.71435 25.0897 9.7536C25.1076 9.78091 25.1256 9.80736 25.1443 9.83467C25.1563 9.85173 25.1682 9.8688 25.1802 9.88587C25.1819 9.89184 25.1853 9.89696 25.1879 9.90123C25.2007 9.91829 25.2126 9.93451 25.2254 9.95157C25.228 9.95669 25.2305 9.96181 25.2339 9.96693C25.2595 10.007 25.286 10.0463 25.3116 10.0864C25.3363 10.1282 25.3611 10.1709 25.3867 10.2127C25.3986 10.2298 25.4106 10.2468 25.4225 10.2647C25.4336 10.2835 25.4447 10.3031 25.4567 10.3219C25.4669 10.3398 25.4771 10.3586 25.4874 10.3765C25.4899 10.3817 25.4933 10.3859 25.4976 10.3902C25.5079 10.4081 25.5172 10.4269 25.5275 10.4448C25.5471 10.4789 25.5659 10.5122 25.5855 10.5463C25.6043 10.5788 25.6239 10.6103 25.6427 10.6428C25.6529 10.6624 25.6632 10.682 25.6734 10.7025C25.6836 10.7204 25.6947 10.7383 25.705 10.7554C25.7101 10.7665 25.7152 10.7776 25.7195 10.7895C25.7459 10.8365 25.7724 10.8834 25.7988 10.9303C25.8031 10.9423 25.8074 10.9534 25.8116 10.9653C25.8219 10.9833 25.833 11.0012 25.8432 11.0191C25.8475 11.0302 25.8526 11.0421 25.8569 11.0532C25.8671 11.0711 25.8765 11.0899 25.8867 11.1078C25.8919 11.1189 25.897 11.13 25.9021 11.1411C25.9115 11.1599 25.9209 11.1787 25.9303 11.1974C25.9362 11.2085 25.9413 11.2188 25.9473 11.2299C25.9559 11.2486 25.9644 11.2674 25.9738 11.287C25.9849 11.3135 25.996 11.3408 26.0071 11.3673C26.0173 11.3852 26.0275 11.4031 26.0386 11.421C26.0455 11.4389 26.0523 11.4569 26.0591 11.4739C26.0736 11.5081 26.0881 11.5422 26.1026 11.5772C26.1086 11.5883 26.1137 11.5994 26.1197 11.6105C26.2076 11.8332 26.2963 12.055 26.3842 12.2778C26.3876 12.2906 26.3911 12.3034 26.3936 12.3162C26.4363 12.4365 26.4789 12.5568 26.5216 12.6763C26.5242 12.6891 26.5267 12.7019 26.5293 12.7147C26.5762 12.8794 26.624 13.0441 26.6709 13.2087C26.6735 13.2224 26.6761 13.2352 26.6786 13.2489C26.6914 13.2949 26.7042 13.3402 26.717 13.3862C26.7187 13.3999 26.7213 13.4127 26.723 13.4263C26.7367 13.4793 26.7503 13.533 26.764 13.5859C26.7665 13.6064 26.7691 13.626 26.7716 13.6465C26.7836 13.6926 26.7947 13.7395 26.8066 13.7856C26.81 13.8061 26.8135 13.8257 26.8169 13.8462C26.8297 13.9068 26.8425 13.9682 26.8553 14.0288C26.8578 14.0561 26.8612 14.0843 26.8638 14.1116C26.8758 14.1756 26.8885 14.2404 26.9005 14.3044C26.9039 14.3386 26.9073 14.3727 26.9107 14.4068C26.9235 14.4836 26.9355 14.5604 26.9483 14.6364C26.9491 14.656 26.95 14.6756 26.9508 14.6953C26.9551 14.7396 26.9585 14.784 26.9628 14.8284C26.9636 14.842 26.9654 14.8557 26.9662 14.8685C26.979 15.0033 26.9918 15.1373 27.0046 15.2721C27.0055 15.3233 27.0055 15.3745 27.0063 15.4257C27.0063 15.8114 27.0063 16.198 27.0063 16.5837C27.0055 16.6417 27.0046 16.7006 27.0037 16.7586C26.9909 16.8858 26.979 17.0129 26.9662 17.1401C26.9654 17.1537 26.9636 17.1665 26.9628 17.1802C26.9585 17.2245 26.9551 17.2689 26.9508 17.3133C26.95 17.3329 26.9491 17.3525 26.9483 17.3713C26.9363 17.4481 26.9235 17.5249 26.9116 17.6009C26.9082 17.635 26.9048 17.6691 26.9013 17.7024C26.8894 17.7673 26.8766 17.8313 26.8647 17.8961C26.8621 17.9234 26.8587 17.9507 26.8561 17.978C26.8433 18.0395 26.8305 18.1001 26.8169 18.1615C26.8135 18.182 26.81 18.2016 26.8075 18.2221C26.7955 18.2758 26.7827 18.3296 26.7708 18.3834C26.7674 18.4038 26.7648 18.4235 26.7614 18.4439C26.7486 18.49 26.7358 18.5353 26.723 18.5813C26.7213 18.595 26.7187 18.6078 26.717 18.6214C26.7042 18.6675 26.6914 18.7127 26.6786 18.7588C26.6761 18.7725 26.6735 18.7853 26.6709 18.7989C26.6539 18.8655 26.6377 18.9321 26.6206 18.9986C26.618 19.0106 26.6155 19.0225 26.6129 19.0345C26.6001 19.0763 26.5865 19.1189 26.5737 19.1607C26.5703 19.1735 26.5677 19.1863 26.5643 19.1983C26.5515 19.2375 26.5395 19.2759 26.5267 19.3152C26.5233 19.328 26.5208 19.3408 26.5173 19.3536C26.4405 19.5703 26.3629 19.7871 26.2861 20.0038C26.2827 20.0166 26.2784 20.0286 26.275 20.0414C26.2639 20.0661 26.2528 20.09 26.2417 20.1148C26.2375 20.1276 26.234 20.1395 26.2298 20.1523C26.2187 20.1771 26.2067 20.201 26.1956 20.2257C26.1922 20.2385 26.188 20.2505 26.1845 20.2633C26.1479 20.3452 26.112 20.4279 26.0753 20.5099C26.0685 20.521 26.0617 20.5312 26.0548 20.5423C26.0344 20.5918 26.013 20.6413 25.9925 20.6899C25.9866 20.7002 25.9806 20.7113 25.9738 20.7215C25.955 20.7607 25.9362 20.8009 25.9175 20.8401C25.9123 20.8521 25.9081 20.8631 25.9029 20.8751C25.8936 20.893 25.8833 20.9109 25.8739 20.9297C25.8688 20.9408 25.8637 20.9527 25.8586 20.9638C25.8492 20.9818 25.8398 21.0005 25.8304 21.0185C25.8244 21.0295 25.8185 21.0406 25.8125 21.0517C25.8031 21.0697 25.7946 21.0884 25.7852 21.1063C25.7809 21.1106 25.7775 21.1149 25.7741 21.12C25.7502 21.1686 25.7272 21.2173 25.7033 21.2651C25.6888 21.2898 25.6734 21.3154 25.6589 21.3402C25.6487 21.3581 25.6384 21.376 25.6273 21.3931C25.6171 21.4127 25.606 21.4323 25.5957 21.4519C25.5719 21.4929 25.548 21.5339 25.5241 21.5748C25.519 21.5859 25.5138 21.597 25.5087 21.6081C25.4968 21.6252 25.4857 21.6431 25.4737 21.6602C25.4703 21.6653 25.4677 21.6704 25.466 21.6764C25.4541 21.6934 25.4422 21.7105 25.4302 21.7276C25.4106 21.7609 25.3901 21.7941 25.3705 21.8283C25.3449 21.8684 25.3201 21.9085 25.2945 21.9486C25.2766 21.9759 25.2587 22.0023 25.2408 22.0297C25.2297 22.0476 25.2177 22.0646 25.2066 22.0826C25.2024 22.0868 25.1989 22.0911 25.1964 22.0962C25.1853 22.1141 25.1742 22.1312 25.1623 22.1491C25.1443 22.1756 25.1256 22.2029 25.1076 22.2293C25.0965 22.2473 25.0855 22.2652 25.0744 22.2831C25.0488 22.3172 25.0232 22.3522 24.9984 22.3863C24.9651 22.4333 24.931 22.4802 24.8977 22.5271C24.844 22.5988 24.7893 22.6714 24.7356 22.743C24.7228 22.7593 24.7091 22.7755 24.6963 22.7925C24.6861 22.8053 24.6759 22.8173 24.6656 22.8301C24.6537 22.8471 24.6409 22.8642 24.6289 22.8813C24.1664 23.453 23.6587 23.9804 23.0972 24.4548C23.0733 24.4745 23.0485 24.4949 23.0247 24.5146C22.9009 24.6127 22.7772 24.7117 22.6543 24.8098C22.6381 24.8226 22.621 24.8363 22.6048 24.8491C22.4666 24.9481 22.3283 25.0462 22.1901 25.1452C22.173 25.158 22.1568 25.1699 22.1397 25.1827C22.0305 25.251 21.9213 25.3201 21.8121 25.3884C21.795 25.4003 21.7779 25.4123 21.7609 25.4251C21.7191 25.4498 21.6764 25.4746 21.6346 25.4993C21.5936 25.5232 21.5535 25.5479 21.5125 25.5718C21.4878 25.5872 21.4631 25.6017 21.4383 25.6171C21.4195 25.6265 21.4008 25.6358 21.3828 25.6452C21.3632 25.6555 21.3436 25.6657 21.324 25.6768C21.2907 25.6947 21.2583 25.7126 21.225 25.7306C21.1994 25.7442 21.1746 25.7579 21.149 25.7715C21.0927 25.8014 21.0364 25.8313 20.9801 25.8611C20.94 25.8816 20.899 25.9021 20.8589 25.9226C20.8188 25.9413 20.7787 25.9601 20.7394 25.9789C20.713 25.9908 20.6874 26.0028 20.6609 26.0147C20.6268 26.0292 20.5927 26.0446 20.5585 26.0591C20.5483 26.0659 20.5372 26.0727 20.5269 26.0796C20.4817 26.1009 20.4365 26.1214 20.3913 26.1427C20.3699 26.1504 20.3477 26.1589 20.3264 26.1666C20.3076 26.1751 20.2889 26.1837 20.2701 26.1922C20.2513 26.1982 20.2334 26.2042 20.2146 26.2101C20.1967 26.2195 20.1779 26.2298 20.16 26.2391C20.1412 26.2443 20.1233 26.2502 20.1045 26.2554C20.0866 26.2656 20.0679 26.275 20.0499 26.2852C20.0098 26.3006 19.9706 26.3151 19.9305 26.3305C19.8733 26.3501 19.817 26.3697 19.7598 26.3893C19.741 26.3962 19.7223 26.4021 19.7043 26.409C19.6446 26.4311 19.5857 26.4542 19.526 26.4764C19.5132 26.4789 19.4995 26.4815 19.4867 26.4841C19.4552 26.496 19.4244 26.5079 19.3929 26.5199C19.3724 26.5242 19.3528 26.5284 19.3323 26.5327C19.2973 26.5455 19.2632 26.5583 19.2282 26.5719C19.2162 26.5737 19.2051 26.5762 19.1932 26.5779C19.1531 26.5907 19.113 26.6044 19.0737 26.6172C19.0481 26.6223 19.0217 26.6274 18.9961 26.6325C18.9508 26.6462 18.9056 26.659 18.8604 26.6726C18.8467 26.6752 18.8331 26.6769 18.8194 26.6795C18.7742 26.6923 18.7281 26.7051 18.6829 26.7187C18.6624 26.7221 18.6419 26.7255 18.6215 26.729C18.5831 26.7409 18.5438 26.752 18.5054 26.7639C18.4849 26.7665 18.4644 26.7691 18.4431 26.7708C18.397 26.7836 18.3518 26.7964 18.3057 26.8092C18.2852 26.8126 18.2648 26.816 18.2443 26.8186C18.1905 26.8305 18.1376 26.8433 18.0839 26.8553C18.0565 26.8587 18.0284 26.8621 18.0011 26.8655C17.9371 26.8774 17.8722 26.8894 17.8082 26.9022C17.7818 26.9056 17.7553 26.909 17.7297 26.9124C17.6597 26.9235 17.5898 26.9355 17.5198 26.9466C17.4933 26.95 17.4677 26.9525 17.4413 26.9559C17.4114 26.9577 17.3824 26.9602 17.3525 26.9619C17.3389 26.9645 17.3252 26.9662 17.3124 26.9687C17.2075 26.9807 17.1025 26.9926 16.9976 27.0054C16.954 27.0071 16.9105 27.0089 16.867 27.0106C16.7356 27.0123 16.6042 27.014 16.4728 27.0165C16.1493 27.0157 15.8268 27.0157 15.5034 27.0148C15.366 27.0106 15.2277 27.0071 15.0904 27.0029C14.9479 26.9918 14.8053 26.9798 14.6637 26.9687C14.65 26.967 14.6364 26.9662 14.6236 26.9645C14.4981 26.9474 14.3719 26.9295 14.2464 26.9124C14.22 26.9099 14.1927 26.9073 14.1662 26.9047C14.1039 26.8919 14.0425 26.88 13.9802 26.8672C13.9605 26.8646 13.9418 26.8621 13.9221 26.8595C13.865 26.8467 13.8087 26.8331 13.7515 26.8203C13.7319 26.8177 13.7114 26.8151 13.6917 26.8126C13.638 26.7998 13.5842 26.787 13.5305 26.7742C13.51 26.7708 13.4904 26.7682 13.4699 26.7648C13.4238 26.752 13.3777 26.7392 13.3316 26.7264C13.3188 26.7247 13.3052 26.7221 13.2924 26.7204C13.1226 26.6735 12.9519 26.6266 12.7821 26.5796C12.7701 26.5771 12.7582 26.5754 12.7463 26.5728C12.6601 26.5438 12.5739 26.5139 12.4885 26.4849C12.4757 26.4815 12.4629 26.4789 12.4501 26.4755C12.4186 26.4636 12.387 26.4516 12.3563 26.4397C12.3435 26.4371 12.3307 26.4337 12.317 26.4311C12.0576 26.3287 11.7973 26.2263 11.5379 26.1239C11.5268 26.118 11.5166 26.1111 11.5055 26.1052C11.3758 26.0446 11.2469 25.984 11.1172 25.9234C11.1053 25.9191 11.0942 25.914 11.0823 25.9098C11.0643 25.9004 11.0456 25.8901 11.0276 25.8807C11.0165 25.8756 11.0055 25.8697 10.9944 25.8645C10.9756 25.8551 10.9577 25.8458 10.9389 25.8364C10.9278 25.8304 10.9167 25.8244 10.9065 25.8185C10.8877 25.8099 10.8689 25.8014 10.8501 25.7929C10.8305 25.7818 10.8109 25.7715 10.7913 25.7604C10.758 25.7442 10.7247 25.7271 10.6914 25.7109C10.6667 25.6956 10.6419 25.6811 10.6172 25.6657C10.5907 25.6503 10.5643 25.635 10.537 25.6196C10.5122 25.6051 10.4866 25.5906 10.4619 25.5761C10.444 25.5659 10.426 25.5548 10.4081 25.5445C10.3655 25.5198 10.3236 25.4959 10.281 25.4711C10.2639 25.4592 10.246 25.4481 10.2289 25.4362C10.2238 25.4327 10.2187 25.4302 10.2136 25.4285C10.1965 25.4165 10.1794 25.4046 10.1624 25.3926C10.1427 25.3815 10.124 25.3705 10.1043 25.3594C10.0284 25.3099 9.95244 25.2604 9.8765 25.2117C9.87223 25.2075 9.86796 25.2041 9.86284 25.2006C9.84492 25.1895 9.827 25.1793 9.80908 25.1682C9.80482 25.1639 9.80055 25.1605 9.79543 25.1571C9.77751 25.146 9.75959 25.1349 9.74252 25.1238C9.72972 25.1145 9.71692 25.1042 9.70412 25.0948C9.68791 25.082 9.67084 25.0692 9.65463 25.0564C9.60599 25.0223 9.55735 24.9873 9.50956 24.9532C9.48396 24.9361 9.45836 24.919 9.43276 24.9011C9.41996 24.8909 9.40802 24.8806 9.39522 24.8704C9.37815 24.8585 9.36108 24.8457 9.34402 24.8337C9.33122 24.8243 9.31842 24.8141 9.30562 24.8047C9.28087 24.7859 9.25612 24.7663 9.23138 24.7475C9.18956 24.7151 9.14775 24.6827 9.10594 24.6494C9.08972 24.6366 9.07266 24.6238 9.05644 24.611C9.02828 24.5871 9.00012 24.5632 8.97196 24.5393C8.94807 24.5188 8.92418 24.4983 8.90114 24.4779C8.88066 24.4608 8.86103 24.4437 8.84055 24.4267C8.81666 24.407 8.79191 24.3874 8.76802 24.3678C8.74071 24.3439 8.71255 24.3191 8.68524 24.2953C8.66135 24.2748 8.63831 24.2543 8.61442 24.2338C8.5197 24.1434 8.42498 24.0538 8.3294 23.9633C8.30551 23.9428 8.28247 23.9215 8.25858 23.901C8.20652 23.849 8.15532 23.7978 8.10327 23.7457C8.09559 23.738 8.08876 23.7312 8.08108 23.7235C8.05975 23.7005 8.03927 23.6766 8.01794 23.6535C7.88994 23.5153 7.76194 23.3762 7.63479 23.238C7.61516 23.2132 7.59554 23.1893 7.57591 23.1646C7.51447 23.0929 7.45303 23.0204 7.39159 22.9487C7.37879 22.9325 7.36599 22.9154 7.35319 22.8992C7.31394 22.8489 7.27554 22.7994 7.23628 22.749C7.22348 22.7328 7.20983 22.7166 7.19703 22.7004C7.1646 22.6577 7.13303 22.6159 7.1006 22.5732C7.08268 22.5476 7.06476 22.5229 7.04599 22.4973C7.00503 22.441 6.96492 22.3846 6.92396 22.3283C6.91202 22.3113 6.90007 22.2942 6.88812 22.2771C6.88471 22.272 6.8813 22.2677 6.87788 22.2635C6.86679 22.2455 6.8557 22.2276 6.8446 22.2106C6.78316 22.1167 6.72087 22.0228 6.65943 21.929C6.63895 21.8982 6.61847 21.8667 6.59714 21.8359C6.59372 21.8308 6.59031 21.8266 6.5869 21.8214C6.57751 21.8027 6.56727 21.7847 6.55788 21.766C6.55532 21.7609 6.55106 21.7566 6.54764 21.7523C6.52375 21.7114 6.49986 21.6713 6.47596 21.6303C6.4606 21.6055 6.44524 21.5808 6.42988 21.5561C6.41452 21.5296 6.39916 21.5023 6.38466 21.4758C6.37015 21.4511 6.35564 21.4255 6.34114 21.4007C6.33175 21.3828 6.32236 21.3641 6.31298 21.3461C6.30274 21.3265 6.2925 21.306 6.28226 21.2864C6.21143 21.1507 6.13975 21.015 6.06892 20.8802C6.0638 20.8691 6.05783 20.858 6.05271 20.8469C6.04418 20.8282 6.03479 20.8094 6.02626 20.7906C6.02028 20.7795 6.01431 20.7693 6.00748 20.7582C5.987 20.7087 5.96567 20.6592 5.94519 20.6097C5.93836 20.5995 5.93154 20.5884 5.92556 20.5781C5.90508 20.5329 5.8846 20.4868 5.86327 20.4416C5.85474 20.4203 5.8462 20.3989 5.83767 20.3776C5.79842 20.2684 5.76087 20.1583 5.7182 20.0508C5.65676 19.8921 5.59191 19.735 5.52791 19.5772C5.52535 19.5644 5.52279 19.5516 5.52023 19.5379C5.50743 19.5063 5.49548 19.4756 5.48268 19.4441C5.48012 19.4313 5.47671 19.4185 5.47415 19.4057C5.4622 19.3741 5.45026 19.3425 5.43746 19.3109C5.43404 19.2981 5.43148 19.2853 5.42807 19.2725C5.41612 19.2333 5.40503 19.1949 5.39308 19.1556C5.38967 19.1428 5.3854 19.13 5.38199 19.1181C5.33506 18.938 5.28727 18.7588 5.24034 18.5788C5.23863 18.5651 5.23607 18.5523 5.23436 18.5387C5.22071 18.4781 5.2062 18.4175 5.19255 18.3569C5.19084 18.3441 5.18914 18.3305 5.18743 18.3177C5.17378 18.2639 5.16098 18.211 5.14732 18.1572C5.14391 18.1299 5.14135 18.1018 5.13794 18.0745C5.13623 18.0386 5.13794 18.0019 5.13282 17.9669C5.1021 17.7493 5.07138 17.5326 5.0381 17.3158C5.02871 17.2553 5.01164 17.1964 4.99799 17.1366C4.99714 17.1076 4.99628 17.0795 4.99458 17.0505C4.98263 16.8661 4.96898 16.6878 4.95532 16.5094ZM15.3421 5.46901C12.8623 5.55605 10.3492 6.63467 8.33282 8.77141C6.31383 10.9107 5.34444 13.481 5.45794 16.4241C5.56546 19.2111 6.63895 21.603 8.63746 23.5426C10.7955 25.6375 13.4067 26.6479 16.419 26.5293C19.2324 26.4183 21.6371 25.3252 23.581 23.2977C25.6666 21.1226 26.6445 18.4951 26.5173 15.482C26.2912 10.1572 21.8146 5.37941 15.3421 5.46901Z" fill="#F1F0EF"/>
<path d="M27.0497 16.576C27.0361 16.5768 27.0224 16.5777 27.0088 16.5785Z" fill="#F1F0EF"/>
<path d="M27.0088 15.4197C27.0224 15.4206 27.0361 15.4214 27.0497 15.4223Z" fill="#F1F0EF"/>
<path d="M26.9688 14.8633C26.9807 14.9137 26.9901 14.964 27.0063 15.0127Z" fill="#F1F0EF"/>
<path d="M4.95532 16.5095C4.96898 16.6878 4.98263 16.8662 4.99628 17.0445Z" fill="#F1F0EF"/>
<path d="M15.3421 5.46901C21.8146 5.37941 26.2912 10.1572 26.5165 15.4812C26.6436 18.4943 25.6657 21.1209 23.5801 23.2969C21.6362 25.3244 19.2324 26.4183 16.4181 26.5284C13.4058 26.647 10.7955 25.6367 8.63657 23.5418C6.63806 21.6021 5.56457 19.2102 5.45705 16.4233C5.34355 13.4801 6.31294 10.9099 8.33193 8.77056C10.3492 6.63552 12.8614 5.55691 15.3421 5.46901ZM26.2989 15.6467C26.2442 13.0594 25.2109 10.5463 23.0844 8.52821C20.9587 6.51179 18.3961 5.59189 15.4735 5.70709C10.3603 5.91019 5.50142 10.1854 5.68489 16.407C5.84019 21.6653 10.2084 26.4576 16.3191 26.3023C21.7113 26.1658 26.2673 21.7745 26.2989 15.6467Z" fill="#210D00"/>
<path d="M23.4956 7.90698C23.5144 7.91552 23.5383 7.92064 23.5519 7.93429C23.7217 8.1024 23.8907 8.27136 24.0588 8.44117C24.075 8.45738 24.081 8.48469 24.0921 8.50688C23.8933 8.3072 23.6944 8.10752 23.4956 7.90698Z" fill="#F1F0EF"/>
<path d="M5.43567 12.7223C5.48346 12.5653 5.52527 12.4066 5.58074 12.253C5.63364 12.1054 5.70191 11.9637 5.76335 11.8195C5.72324 11.9364 5.68399 12.0533 5.64388 12.1702C5.58927 12.3298 5.53636 12.4902 5.48004 12.6498C5.47066 12.6754 5.45103 12.6985 5.43567 12.7223Z" fill="#F1F0EF"/>
<path d="M12.3195 26.426C12.1702 26.3757 12.0183 26.3296 11.8715 26.2733C11.758 26.2298 11.6505 26.1709 11.5404 26.1188C11.8007 26.2212 12.0601 26.3236 12.3195 26.426Z" fill="#F1F0EF"/>
<path d="M5.19421 13.6474C5.22835 13.4852 5.25907 13.3223 5.29832 13.161C5.3188 13.0774 5.35293 12.9971 5.38109 12.9152C5.34355 13.0808 5.30771 13.2463 5.2676 13.411C5.24797 13.4912 5.21896 13.5689 5.19421 13.6474Z" fill="#F1F0EF"/>
<path d="M5.83845 20.3717C5.78554 20.2582 5.72581 20.1472 5.68143 20.0303C5.62426 19.8793 5.57903 19.724 5.52869 19.5712C5.59183 19.7291 5.65754 19.887 5.71898 20.0448C5.76165 20.1532 5.79919 20.2633 5.83845 20.3717Z" fill="#F1F0EF"/>
<path d="M26.1205 11.6045C26.1794 11.7316 26.2425 11.8562 26.2954 11.9859C26.333 12.0781 26.356 12.1762 26.385 12.2718C26.2971 12.0499 26.2092 11.8272 26.1205 11.6045Z" fill="#F1F0EF"/>
<path d="M26.519 19.3494C26.4422 19.5661 26.3645 19.7829 26.2877 19.9996C26.3654 19.782 26.4422 19.5653 26.519 19.3494Z" fill="#F1F0EF"/>
<path d="M5.38274 19.1113C5.33581 18.9312 5.28802 18.752 5.24109 18.572C5.28802 18.752 5.33581 18.9321 5.38274 19.1113Z" fill="#F1F0EF"/>
<path d="M13.2958 26.7162C13.2216 26.7034 13.1456 26.6974 13.0731 26.6769C12.9758 26.6488 12.8811 26.6095 12.7847 26.5754C12.9553 26.6223 13.126 26.6692 13.2958 26.7162Z" fill="#F1F0EF"/>
<path d="M5.77271 11.7845C5.83927 11.6352 5.90497 11.4859 5.97153 11.3365C5.90497 11.4859 5.83841 11.6352 5.77271 11.7845Z" fill="#F1F0EF"/>
<path d="M6.28304 21.2813C6.21221 21.1456 6.14053 21.0099 6.0697 20.8751C6.14138 21.0099 6.21221 21.1456 6.28304 21.2813Z" fill="#F1F0EF"/>
<path d="M11.508 26.1001C11.3783 26.0395 11.2495 25.9789 11.1198 25.9183C11.2495 25.9789 11.3792 26.0395 11.508 26.1001Z" fill="#F1F0EF"/>
<path d="M14.2942 5.08928C14.4273 5.07136 14.5604 5.0543 14.6935 5.03638C14.5604 5.0543 14.4273 5.07222 14.2942 5.08928Z" fill="#F1F0EF"/>
<path d="M14.6269 26.9611C14.5015 26.944 14.3752 26.9261 14.2498 26.9091C14.3752 26.9261 14.5015 26.9432 14.6269 26.9611Z" fill="#F1F0EF"/>
<path d="M26.3953 12.311C26.4379 12.4314 26.4806 12.5517 26.5233 12.6711C26.4806 12.5508 26.4379 12.4305 26.3953 12.311Z" fill="#F1F0EF"/>
<path d="M13.0039 5.3675C13.1089 5.33934 13.213 5.31033 13.3179 5.28217C13.213 5.31033 13.1089 5.33849 13.0039 5.3675Z" fill="#F1F0EF"/>
<path d="M17.0402 5.00909C17.1306 5.02019 17.2211 5.03213 17.3115 5.04323C17.2211 5.03213 17.1306 5.02104 17.0402 5.00909Z" fill="#F1F0EF"/>
<path d="M12.7496 26.5685C12.6635 26.5395 12.5773 26.5097 12.4919 26.4807C12.5773 26.5097 12.6635 26.5387 12.7496 26.5685Z" fill="#F1F0EF"/>
<path d="M6.67554 10.06C6.72247 9.98998 6.76855 9.92086 6.81548 9.85089C6.76855 9.92086 6.72162 9.98998 6.67554 10.06Z" fill="#F1F0EF"/>
<path d="M11.4534 5.92643C11.5353 5.88973 11.6164 5.85304 11.6983 5.8172C11.6172 5.85304 11.5353 5.88973 11.4534 5.92643Z" fill="#F1F0EF"/>
<path d="M26.187 20.2582C26.1503 20.3401 26.1145 20.4229 26.0778 20.5048C26.1136 20.4229 26.1503 20.341 26.187 20.2582Z" fill="#F1F0EF"/>
<path d="M17.4174 5.05432C17.4933 5.06627 17.5684 5.07736 17.6443 5.08931C17.5684 5.07821 17.4925 5.06627 17.4174 5.05432Z" fill="#F1F0EF"/>
<path d="M26.9132 14.4017C26.926 14.4785 26.938 14.5553 26.9508 14.6313C26.938 14.5553 26.9252 14.4785 26.9132 14.4017Z" fill="#F1F0EF"/>
<path d="M26.9499 17.3671C26.938 17.4439 26.9252 17.5207 26.9132 17.5966C26.9252 17.5198 26.938 17.443 26.9499 17.3671Z" fill="#F1F0EF"/>
<path d="M8.26029 23.8968C8.20823 23.8447 8.15703 23.7935 8.10498 23.7415C8.15703 23.7927 8.20909 23.8447 8.26029 23.8968Z" fill="#F1F0EF"/>
<path d="M5.10205 14.1201C5.11485 14.0561 5.12765 13.9912 5.14045 13.9272C5.12765 13.9912 5.11485 14.0552 5.10205 14.1201Z" fill="#F1F0EF"/>
<path d="M26.6727 18.7947C26.6556 18.8612 26.6394 18.9278 26.6223 18.9944C26.6394 18.9278 26.6564 18.8612 26.6727 18.7947Z" fill="#F1F0EF"/>
<path d="M14.1695 26.9014C14.1073 26.8886 14.0458 26.8766 13.9835 26.8638C14.0458 26.8758 14.1073 26.8886 14.1695 26.9014Z" fill="#F1F0EF"/>
<path d="M26.8185 13.8411C26.8313 13.9017 26.8441 13.9631 26.8569 14.0237C26.8449 13.9631 26.8321 13.9025 26.8185 13.8411Z" fill="#F1F0EF"/>
<path d="M13.7566 5.18403C13.8172 5.17123 13.8778 5.15758 13.9392 5.14478C13.8778 5.15843 13.8172 5.17123 13.7566 5.18403Z" fill="#F1F0EF"/>
<path d="M20.2803 5.82404C20.3511 5.85476 20.4228 5.88548 20.4936 5.9162C20.4228 5.88462 20.352 5.8539 20.2803 5.82404Z" fill="#F1F0EF"/>
<path d="M17.7331 26.9091C17.6631 26.9202 17.5932 26.9321 17.5232 26.9432C17.5932 26.9312 17.6631 26.9202 17.7331 26.9091Z" fill="#F1F0EF"/>
<path d="M19.7913 5.62946C19.8595 5.65676 19.9269 5.68492 19.9952 5.71223C19.9269 5.68492 19.8587 5.65676 19.7913 5.62946Z" fill="#F1F0EF"/>
<path d="M26.8577 17.9738C26.8449 18.0352 26.8321 18.0958 26.8185 18.1572C26.8313 18.0958 26.8449 18.0352 26.8577 17.9738Z" fill="#F1F0EF"/>
<path d="M5.23517 18.5327C5.22152 18.4721 5.20701 18.4115 5.19336 18.351C5.20701 18.4115 5.22067 18.4721 5.23517 18.5327Z" fill="#F1F0EF"/>
<path d="M26.8663 14.1064C26.8783 14.1704 26.8911 14.2353 26.903 14.2993C26.8911 14.2353 26.8791 14.1713 26.8663 14.1064Z" fill="#F1F0EF"/>
<path d="M13.9255 26.8553C13.8684 26.8425 13.8121 26.8288 13.7549 26.816C13.8121 26.8297 13.8692 26.8425 13.9255 26.8553Z" fill="#F1F0EF"/>
<path d="M26.903 17.699C26.8911 17.7638 26.8783 17.8278 26.8663 17.8927C26.8783 17.8278 26.8911 17.763 26.903 17.699Z" fill="#F1F0EF"/>
<path d="M26.8092 18.2178C26.7972 18.2716 26.7844 18.3254 26.7725 18.3791C26.7844 18.3254 26.7964 18.2716 26.8092 18.2178Z" fill="#F1F0EF"/>
<path d="M5.18732 18.3117C5.17367 18.2579 5.16087 18.205 5.14722 18.1512C5.16087 18.205 5.17452 18.2588 5.18732 18.3117Z" fill="#F1F0EF"/>
<path d="M18.0054 26.8621C17.9414 26.874 17.8765 26.886 17.8125 26.8988C17.8765 26.8868 17.9405 26.874 18.0054 26.8621Z" fill="#F1F0EF"/>
<path d="M18.2484 26.8152C18.1947 26.8271 18.1418 26.8399 18.088 26.8519C18.1418 26.8391 18.1955 26.8271 18.2484 26.8152Z" fill="#F1F0EF"/>
<path d="M13.6951 26.8092C13.6413 26.7964 13.5876 26.7836 13.5338 26.7708C13.5876 26.7828 13.6413 26.7956 13.6951 26.8092Z" fill="#F1F0EF"/>
<path d="M18.0206 5.14648C18.0761 5.15843 18.1316 5.17123 18.1862 5.18318C18.1316 5.17123 18.0761 5.15928 18.0206 5.14648Z" fill="#F1F0EF"/>
<path d="M13.5577 5.23096C13.6106 5.21731 13.6644 5.20366 13.7173 5.19086C13.6636 5.20366 13.6106 5.21731 13.5577 5.23096Z" fill="#F1F0EF"/>
<path d="M19.7076 26.4047C19.6479 26.4269 19.589 26.4499 19.5293 26.4721C19.589 26.4499 19.6488 26.4269 19.7076 26.4047Z" fill="#F1F0EF"/>
<path d="M21.1532 25.7664C21.0969 25.7963 21.0406 25.8262 20.9843 25.856C21.0406 25.827 21.0969 25.7963 21.1532 25.7664Z" fill="#F1F0EF"/>
<path d="M25.0027 22.3829C24.9694 22.4299 24.9353 22.4768 24.902 22.5237C24.9361 22.4768 24.9694 22.4299 25.0027 22.3829Z" fill="#F1F0EF"/>
<path d="M6.91541 9.70409C6.94783 9.65716 6.98111 9.60937 7.01354 9.56244C6.98111 9.60937 6.94783 9.65631 6.91541 9.70409Z" fill="#F1F0EF"/>
<path d="M26.7742 13.6414C26.7861 13.6875 26.7972 13.7344 26.8092 13.7805C26.7972 13.7344 26.7853 13.6875 26.7742 13.6414Z" fill="#F1F0EF"/>
<path d="M13.358 5.27534C13.4041 5.26254 13.4493 5.25059 13.4954 5.23779C13.4493 5.25059 13.4041 5.26339 13.358 5.27534Z" fill="#F1F0EF"/>
<path d="M5.92545 20.5721C5.90497 20.5269 5.88449 20.4808 5.86316 20.4356C5.88449 20.4817 5.90497 20.5269 5.92545 20.5721Z" fill="#F1F0EF"/>
<path d="M26.0573 20.538C26.0368 20.5875 26.0155 20.637 25.995 20.6857C26.0155 20.6362 26.0368 20.5867 26.0573 20.538Z" fill="#F1F0EF"/>
<path d="M6.00822 20.7522C5.98774 20.7027 5.9664 20.6533 5.94592 20.6038C5.9664 20.6541 5.98774 20.7027 6.00822 20.7522Z" fill="#F1F0EF"/>
<path d="M26.6803 13.2437C26.6931 13.2898 26.7059 13.335 26.7187 13.3811C26.7059 13.3359 26.6931 13.2898 26.6803 13.2437Z" fill="#F1F0EF"/>
<path d="M26.9653 17.175C26.961 17.2194 26.9576 17.2638 26.9534 17.3082C26.9568 17.2638 26.961 17.2194 26.9653 17.175Z" fill="#F1F0EF"/>
<path d="M26.7187 18.6172C26.7059 18.6633 26.6931 18.7085 26.6803 18.7546C26.6931 18.7085 26.7059 18.6624 26.7187 18.6172Z" fill="#F1F0EF"/>
<path d="M21.0798 6.19946C21.1259 6.22592 21.1728 6.25322 21.2189 6.27968C21.172 6.25322 21.1259 6.22677 21.0798 6.19946Z" fill="#F1F0EF"/>
<path d="M18.8237 26.6752C18.7784 26.688 18.7324 26.7008 18.6871 26.7145C18.7324 26.7017 18.7776 26.6889 18.8237 26.6752Z" fill="#F1F0EF"/>
<path d="M26.763 18.4397C26.7502 18.4858 26.7374 18.531 26.7246 18.5771C26.7374 18.531 26.7502 18.4849 26.763 18.4397Z" fill="#F1F0EF"/>
<path d="M26.9534 14.6901C26.9576 14.7345 26.961 14.7789 26.9653 14.8232C26.961 14.7789 26.9568 14.7345 26.9534 14.6901Z" fill="#F1F0EF"/>
<path d="M20.5303 26.0745C20.4851 26.0958 20.4399 26.1163 20.3947 26.1376C20.4399 26.1171 20.4851 26.0958 20.5303 26.0745Z" fill="#F1F0EF"/>
<path d="M25.2365 9.96185C25.2621 10.002 25.2885 10.0412 25.3141 10.0813C25.2885 10.0412 25.2621 10.0011 25.2365 9.96185Z" fill="#F1F0EF"/>
<path d="M6.5502 21.7464C6.5263 21.7054 6.50241 21.6653 6.47852 21.6243C6.50156 21.6653 6.52545 21.7062 6.5502 21.7464Z" fill="#F1F0EF"/>
<path d="M18.9994 26.6292C18.9542 26.6428 18.909 26.6556 18.8638 26.6693C18.909 26.6556 18.9542 26.642 18.9994 26.6292Z" fill="#F1F0EF"/>
<path d="M21.6379 25.4951C21.5969 25.5189 21.5568 25.5437 21.5159 25.5676C21.5568 25.5437 21.5978 25.5189 21.6379 25.4951Z" fill="#F1F0EF"/>
<path d="M25.3747 21.8257C25.3491 21.8659 25.3243 21.906 25.2987 21.9461C25.3243 21.9051 25.3491 21.865 25.3747 21.8257Z" fill="#F1F0EF"/>
<path d="M25.0094 9.63159C25.0367 9.67085 25.064 9.70925 25.0913 9.7485C25.0649 9.70925 25.0367 9.67085 25.0094 9.63159Z" fill="#F1F0EF"/>
<path d="M19.1923 5.4306C19.2341 5.44511 19.2759 5.45876 19.3177 5.47327C19.275 5.45962 19.2341 5.44511 19.1923 5.4306Z" fill="#F1F0EF"/>
<path d="M12.8076 5.42292C12.8477 5.41012 12.887 5.39732 12.9271 5.38452C12.887 5.39647 12.8477 5.41012 12.8076 5.42292Z" fill="#F1F0EF"/>
<path d="M12.6472 5.47156C12.689 5.45791 12.7308 5.4434 12.7727 5.42975C12.7308 5.44426 12.689 5.45791 12.6472 5.47156Z" fill="#F1F0EF"/>
<path d="M26.6154 19.0302C26.6026 19.072 26.589 19.1147 26.5762 19.1565C26.589 19.1138 26.6018 19.072 26.6154 19.0302Z" fill="#F1F0EF"/>
<path d="M18.6257 26.7247C18.5873 26.7367 18.548 26.7478 18.5096 26.7597C18.548 26.7486 18.5873 26.7367 18.6257 26.7247Z" fill="#F1F0EF"/>
<path d="M18.8809 5.34271C18.9193 5.35466 18.9577 5.36661 18.9969 5.37855C18.9585 5.36661 18.9201 5.35466 18.8809 5.34271Z" fill="#F1F0EF"/>
<path d="M5.42976 19.2666C5.41782 19.2273 5.40672 19.1889 5.39478 19.1497C5.40587 19.1889 5.41782 19.2273 5.42976 19.2666Z" fill="#F1F0EF"/>
<path d="M26.5659 19.194C26.5531 19.2333 26.5411 19.2717 26.5283 19.3109C26.5411 19.2717 26.5539 19.2324 26.5659 19.194Z" fill="#F1F0EF"/>
<path d="M12.4526 26.4713C12.4211 26.4593 12.3895 26.4474 12.3588 26.4354C12.3903 26.4474 12.4219 26.4593 12.4526 26.4713Z" fill="#F1F0EF"/>
<path d="M25.9762 20.7172C25.9575 20.7565 25.9387 20.7966 25.9199 20.8358C25.9387 20.7966 25.9575 20.7573 25.9762 20.7172Z" fill="#F1F0EF"/>
<path d="M12.2487 5.60896C12.2794 5.59701 12.311 5.58421 12.3417 5.57227C12.311 5.58421 12.2802 5.59616 12.2487 5.60896Z" fill="#F1F0EF"/>
<path d="M19.485 5.52533C19.5174 5.53813 19.5507 5.55008 19.5831 5.56288C19.5507 5.55008 19.5174 5.53728 19.485 5.52533Z" fill="#F1F0EF"/>
<path d="M12.1173 5.65675C12.148 5.64395 12.1787 5.63029 12.2086 5.61749C12.1787 5.63115 12.148 5.64395 12.1173 5.65675Z" fill="#F1F0EF"/>
<path d="M17.4447 26.9517C17.4148 26.9534 17.3858 26.956 17.356 26.9577C17.3858 26.956 17.4148 26.9543 17.4447 26.9517Z" fill="#F1F0EF"/>
<path d="M11.3203 5.99212C11.3536 5.97591 11.3869 5.96055 11.421 5.94434C11.3869 5.9597 11.3536 5.97591 11.3203 5.99212Z" fill="#F1F0EF"/>
<path d="M20.5901 5.96143C20.6242 5.97679 20.6584 5.99129 20.6925 6.00665C20.6584 5.99129 20.6242 5.97593 20.5901 5.96143Z" fill="#F1F0EF"/>
<path d="M6.11584 11.0345C6.13462 11.002 6.15254 10.9696 6.17131 10.9372C6.15254 10.9696 6.13376 11.002 6.11584 11.0345Z" fill="#F1F0EF"/>
<path d="M5.47493 19.3989C5.46298 19.3673 5.45103 19.3357 5.43823 19.3041C5.45103 19.3366 5.46298 19.3681 5.47493 19.3989Z" fill="#F1F0EF"/>
<path d="M21.5227 6.44525C21.5551 6.46402 21.5867 6.4828 21.6191 6.50157C21.5867 6.48194 21.5551 6.46402 21.5227 6.44525Z" fill="#F1F0EF"/>
<path d="M5.52107 19.532C5.50827 19.5004 5.49632 19.4697 5.48352 19.4381C5.49632 19.4688 5.50912 19.5004 5.52107 19.532Z" fill="#F1F0EF"/>
<path d="M19.4901 26.4798C19.4585 26.4917 19.4278 26.5037 19.3962 26.5156C19.4278 26.5037 19.4594 26.4917 19.4901 26.4798Z" fill="#F1F0EF"/>
<path d="M20.6651 26.0104C20.631 26.0249 20.5969 26.0403 20.5627 26.0548C20.5969 26.0394 20.631 26.0249 20.6651 26.0104Z" fill="#F1F0EF"/>
<path d="M10.7938 25.7545C10.7605 25.7382 10.7272 25.7212 10.694 25.705C10.7272 25.722 10.7605 25.7382 10.7938 25.7545Z" fill="#F1F0EF"/>
<path d="M25.5872 10.5404C25.6059 10.5728 25.6256 10.6044 25.6443 10.6368C25.6256 10.6053 25.6068 10.5728 25.5872 10.5404Z" fill="#F1F0EF"/>
<path d="M21.3274 25.6725C21.2941 25.6905 21.2617 25.7084 21.2284 25.7263C21.2617 25.7084 21.295 25.6905 21.3274 25.6725Z" fill="#F1F0EF"/>
<path d="M6.51343 10.3237C6.53305 10.2921 6.55183 10.2605 6.57145 10.2281C6.55268 10.2605 6.53305 10.2921 6.51343 10.3237Z" fill="#F1F0EF"/>
<path d="M20.0345 5.72333C20.0584 5.73442 20.0823 5.74551 20.1062 5.75575C20.0823 5.74466 20.0584 5.73357 20.0345 5.72333Z" fill="#F1F0EF"/>
<path d="M26.2767 20.0371C26.2656 20.0619 26.2545 20.0857 26.2434 20.1105C26.2545 20.0857 26.2656 20.061 26.2767 20.0371Z" fill="#F1F0EF"/>
<path d="M26.2314 20.1481C26.2203 20.1728 26.2092 20.1967 26.1973 20.2215C26.2092 20.1967 26.2203 20.172 26.2314 20.1481Z" fill="#F1F0EF"/>
<path d="M6.43158 21.5501C6.41622 21.5237 6.40086 21.4964 6.38635 21.4699C6.40171 21.4972 6.41622 21.5237 6.43158 21.5501Z" fill="#F1F0EF"/>
<path d="M10.6198 25.6597C10.5933 25.6444 10.5669 25.629 10.5396 25.6136C10.566 25.6299 10.5933 25.6444 10.6198 25.6597Z" fill="#F1F0EF"/>
<path d="M9.51125 24.9489C9.48565 24.9318 9.46005 24.9148 9.43445 24.8969C9.46005 24.9139 9.48565 24.9318 9.51125 24.9489Z" fill="#F1F0EF"/>
<path d="M23.1013 24.4506C23.0774 24.4702 23.0527 24.4907 23.0288 24.5103C23.0527 24.4907 23.0766 24.471 23.1013 24.4506Z" fill="#F1F0EF"/>
<path d="M8.68692 24.291C8.66302 24.2705 8.63998 24.25 8.61609 24.2296C8.63913 24.2492 8.66302 24.2705 8.68692 24.291Z" fill="#F1F0EF"/>
<path d="M8.33108 23.959C8.30719 23.9385 8.28415 23.9172 8.26025 23.8967C8.28415 23.9172 8.30719 23.9377 8.33108 23.959Z" fill="#F1F0EF"/>
<path d="M8.08268 23.7193C8.06134 23.6962 8.04086 23.6723 8.01953 23.6493C8.04086 23.6723 8.0622 23.6954 8.08268 23.7193Z" fill="#F1F0EF"/>
<path d="M7.62451 8.79446C7.64414 8.77056 7.66291 8.74667 7.68254 8.72278C7.66376 8.74582 7.64414 8.77056 7.62451 8.79446Z" fill="#F1F0EF"/>
<path d="M7.63639 23.2329C7.61677 23.2081 7.59714 23.1842 7.57751 23.1595C7.59714 23.1842 7.61677 23.209 7.63639 23.2329Z" fill="#F1F0EF"/>
<path d="M7.10308 22.5681C7.08516 22.5425 7.06724 22.5178 7.04846 22.4922C7.06638 22.5178 7.08516 22.5425 7.10308 22.5681Z" fill="#F1F0EF"/>
<path d="M24.3687 8.80981C24.3883 8.83456 24.4079 8.85845 24.4275 8.8832C24.4079 8.85845 24.3883 8.83371 24.3687 8.80981Z" fill="#F1F0EF"/>
<path d="M7.40002 9.05898C7.41965 9.03509 7.43928 9.01034 7.4589 8.98645C7.43928 9.01034 7.41965 9.03424 7.40002 9.05898Z" fill="#F1F0EF"/>
<path d="M24.7466 9.2749C24.7654 9.29965 24.7841 9.3244 24.8038 9.34914C24.785 9.3244 24.7654 9.29965 24.7466 9.2749Z" fill="#F1F0EF"/>
<path d="M6.92732 22.3232C6.91537 22.3062 6.90343 22.2891 6.89148 22.272C6.90257 22.2891 6.91537 22.3062 6.92732 22.3232Z" fill="#F1F0EF"/>
<path d="M7.15601 9.36962C7.16881 9.35341 7.18246 9.33805 7.19526 9.32184C7.18246 9.3372 7.16881 9.35341 7.15601 9.36962Z" fill="#F1F0EF"/>
<path d="M24.8328 9.38751C24.8447 9.40458 24.8575 9.42165 24.8695 9.43871C24.8575 9.42079 24.8456 9.40373 24.8328 9.38751Z" fill="#F1F0EF"/>
<path d="M25.1119 22.226C25.1008 22.2439 25.0897 22.2618 25.0786 22.2797C25.0906 22.2618 25.1008 22.2439 25.1119 22.226Z" fill="#F1F0EF"/>
<path d="M7.23884 22.7439C7.22604 22.7277 7.21239 22.7115 7.19958 22.6953C7.21239 22.7115 7.22518 22.7277 7.23884 22.7439Z" fill="#F1F0EF"/>
<path d="M24.7398 22.7396C24.727 22.7558 24.7134 22.7721 24.7006 22.7891C24.7134 22.7721 24.7262 22.7558 24.7398 22.7396Z" fill="#F1F0EF"/>
<path d="M24.6699 22.8258C24.6579 22.8429 24.6451 22.8599 24.6332 22.877C24.6451 22.8599 24.6571 22.8429 24.6699 22.8258Z" fill="#F1F0EF"/>
<path d="M7.39326 22.9445C7.38046 22.9282 7.36766 22.9112 7.35486 22.895C7.36766 22.9112 7.38046 22.9274 7.39326 22.9445Z" fill="#F1F0EF"/>
<path d="M24.9454 9.54114C24.9574 9.5582 24.9702 9.57527 24.9821 9.59234C24.9702 9.57527 24.9582 9.5582 24.9454 9.54114Z" fill="#F1F0EF"/>
<path d="M25.2006 22.0928C25.1895 22.1108 25.1785 22.1278 25.1665 22.1457C25.1785 22.1287 25.1895 22.1108 25.2006 22.0928Z" fill="#F1F0EF"/>
<path d="M7.90784 8.48046C7.92149 8.46425 7.93514 8.44804 7.94794 8.43268C7.93429 8.44804 7.92064 8.46425 7.90784 8.48046Z" fill="#F1F0EF"/>
<path d="M25.2449 22.0262C25.2339 22.0442 25.2219 22.0612 25.2108 22.0792C25.2219 22.0621 25.2339 22.0442 25.2449 22.0262Z" fill="#F1F0EF"/>
<path d="M6.58944 21.8155C6.58005 21.7967 6.56981 21.7788 6.56042 21.76C6.56981 21.7788 6.58005 21.7976 6.58944 21.8155Z" fill="#F1F0EF"/>
<path d="M25.3892 10.2067C25.4011 10.2238 25.4131 10.2409 25.425 10.2588C25.4131 10.2417 25.4011 10.2246 25.3892 10.2067Z" fill="#F1F0EF"/>
<path d="M25.4584 10.316C25.4686 10.3339 25.4789 10.3527 25.4891 10.3706C25.4789 10.3527 25.4686 10.3348 25.4584 10.316Z" fill="#F1F0EF"/>
<path d="M9.10845 24.6451C9.09224 24.6323 9.07517 24.6196 9.05896 24.6068C9.07517 24.6196 9.09139 24.6323 9.10845 24.6451Z" fill="#F1F0EF"/>
<path d="M25.4703 21.6738C25.4583 21.6909 25.4464 21.708 25.4344 21.725C25.4455 21.708 25.4583 21.6909 25.4703 21.6738Z" fill="#F1F0EF"/>
<path d="M22.6576 24.8064C22.6414 24.8192 22.6244 24.8329 22.6082 24.8457C22.6252 24.832 22.6414 24.8192 22.6576 24.8064Z" fill="#F1F0EF"/>
<path d="M9.3969 24.867C9.37984 24.8551 9.36277 24.8423 9.3457 24.8303C9.36277 24.8423 9.37984 24.8542 9.3969 24.867Z" fill="#F1F0EF"/>
<path d="M25.146 9.82874C25.1579 9.8458 25.1699 9.86287 25.1818 9.87994C25.1707 9.86287 25.1588 9.8458 25.146 9.82874Z" fill="#F1F0EF"/>
<path d="M9.7066 25.0897C9.69038 25.0769 9.67332 25.0641 9.6571 25.0513C9.67332 25.065 9.68953 25.0769 9.7066 25.0897Z" fill="#F1F0EF"/>
<path d="M9.7979 25.152C9.77998 25.1409 9.76206 25.1298 9.745 25.1187C9.76292 25.1298 9.77998 25.1409 9.7979 25.152Z" fill="#F1F0EF"/>
<path d="M22.1934 25.1409C22.1763 25.1537 22.1601 25.1657 22.1431 25.1785C22.1601 25.1665 22.1763 25.1537 22.1934 25.1409Z" fill="#F1F0EF"/>
<path d="M9.86528 25.1955C9.84736 25.1844 9.82944 25.1742 9.81152 25.1631C9.82944 25.1733 9.84736 25.1844 9.86528 25.1955Z" fill="#F1F0EF"/>
<path d="M25.9063 20.8717C25.8969 20.8896 25.8867 20.9075 25.8773 20.9263C25.8867 20.9075 25.8961 20.8896 25.9063 20.8717Z" fill="#F1F0EF"/>
<path d="M21.8155 25.3841C21.7984 25.396 21.7813 25.408 21.7643 25.4208C21.7813 25.4088 21.7984 25.396 21.8155 25.3841Z" fill="#F1F0EF"/>
<path d="M10.2835 25.466C10.2664 25.4541 10.2485 25.443 10.2314 25.431C10.2494 25.443 10.2664 25.4549 10.2835 25.466Z" fill="#F1F0EF"/>
<path d="M8.54871 7.83533C8.56492 7.82168 8.58113 7.80888 8.59735 7.79523C8.58113 7.80803 8.56492 7.82168 8.54871 7.83533Z" fill="#F1F0EF"/>
<path d="M25.512 21.6055C25.5001 21.6226 25.489 21.6405 25.4771 21.6576C25.489 21.6405 25.5009 21.6234 25.512 21.6055Z" fill="#F1F0EF"/>
<path d="M21.4417 25.6128C21.4229 25.6222 21.4042 25.6316 21.3862 25.641C21.405 25.6316 21.4238 25.6222 21.4417 25.6128Z" fill="#F1F0EF"/>
<path d="M25.1903 9.89612C25.2031 9.91318 25.2151 9.9294 25.2279 9.94646C25.2151 9.9294 25.2031 9.91233 25.1903 9.89612Z" fill="#F1F0EF"/>
<path d="M25.5001 10.3842C25.5104 10.4021 25.5197 10.4209 25.53 10.4388C25.5197 10.4209 25.5095 10.403 25.5001 10.3842Z" fill="#F1F0EF"/>
<path d="M25.675 10.6965C25.6853 10.7145 25.6964 10.7324 25.7066 10.7494C25.6964 10.7324 25.6861 10.7145 25.675 10.6965Z" fill="#F1F0EF"/>
<path d="M9.32434 7.1919C9.34055 7.17825 9.35677 7.16545 9.37298 7.15179C9.35762 7.16459 9.34055 7.17825 9.32434 7.1919Z" fill="#F1F0EF"/>
<path d="M11.0856 25.9038C11.0677 25.8944 11.0489 25.8841 11.031 25.8748C11.0489 25.8841 11.0668 25.8944 11.0856 25.9038Z" fill="#F1F0EF"/>
<path d="M26.2988 15.6467C26.2672 21.7745 21.7113 26.1658 16.3191 26.3023C10.2084 26.4576 5.84015 21.6653 5.68485 16.4071C5.50138 10.1854 10.3603 5.91021 15.4734 5.70797C18.3952 5.59192 20.9587 6.51267 23.0843 8.52909C25.2108 10.5464 26.2442 13.0603 26.2988 15.6467ZM10.6948 24.4813C10.8262 24.5914 10.8262 24.5914 10.9064 24.4608C10.9158 24.4455 10.9243 24.4293 10.9337 24.413C10.9943 24.3158 11.0856 24.2842 11.1658 24.3328C11.2358 24.3755 11.2528 24.4813 11.2025 24.5718C11.1743 24.623 11.1428 24.6716 11.1112 24.7237C11.1274 24.7382 11.1376 24.7493 11.1496 24.7569C11.3493 24.8883 11.3493 24.8883 11.4662 24.6827C11.5191 24.5897 11.607 24.559 11.6898 24.605C11.7648 24.6469 11.7853 24.7322 11.741 24.8261C11.7119 24.8875 11.6812 24.9489 11.6522 25.0087C11.7939 25.0949 11.7939 25.0949 11.8579 24.9566C11.8655 24.9395 11.8741 24.9233 11.8826 24.9071C11.9347 24.7996 12.0243 24.7586 12.1139 24.8013C12.1881 24.8371 12.2086 24.9336 12.1651 25.036C12.1412 25.0923 12.1164 25.1478 12.0925 25.2015C12.2342 25.2826 12.2342 25.2826 12.2888 25.1554C12.305 25.1179 12.3161 25.0786 12.3374 25.0445C12.3818 24.9728 12.4492 24.9464 12.5286 24.9754C12.6096 25.0053 12.6387 25.071 12.6182 25.1537C12.6054 25.2032 12.5849 25.251 12.5644 25.2988C12.5388 25.3585 12.555 25.3952 12.6165 25.42C12.8034 25.4934 12.8034 25.4951 12.875 25.3039C12.8802 25.2903 12.8836 25.2758 12.8895 25.2621C12.9279 25.1751 13.0073 25.1341 13.0858 25.1657C13.1754 25.2015 13.2053 25.2706 13.1805 25.3628C13.1669 25.4123 13.137 25.4601 13.1353 25.5096C13.1344 25.5411 13.1652 25.5915 13.1933 25.6009C13.2189 25.6094 13.2735 25.5821 13.2889 25.5557C13.3154 25.5087 13.3171 25.449 13.3367 25.3978C13.3708 25.3125 13.434 25.2672 13.5287 25.2894C13.6098 25.3082 13.6507 25.3867 13.6302 25.4823C13.6157 25.5505 13.597 25.6171 13.5765 25.6973C13.6311 25.711 13.6806 25.7238 13.7369 25.7383C13.7599 25.6495 13.7762 25.5736 13.8 25.501C13.8265 25.4191 13.8896 25.3833 13.9724 25.3986C14.0501 25.4131 14.0979 25.4635 14.0902 25.5471C14.0851 25.6051 14.0637 25.6623 14.0612 25.7203C14.0595 25.7528 14.0714 25.804 14.0944 25.8168C14.2608 25.9064 14.3402 25.8637 14.3692 25.6802C14.3726 25.6581 14.3718 25.635 14.3803 25.6145C14.4127 25.5394 14.4674 25.4951 14.5535 25.5104C14.6338 25.5249 14.6747 25.5761 14.6747 25.6581C14.6747 25.6982 14.6696 25.7391 14.6645 25.7792C14.6457 25.9192 14.6534 25.9277 14.8078 25.9226C14.8198 25.8458 14.8292 25.7656 14.8462 25.6871C14.8642 25.6043 14.9205 25.5582 15.0058 25.5659C15.0894 25.5736 15.1398 25.6248 15.1432 25.711C15.1449 25.7553 15.1389 25.7997 15.1355 25.8432C15.1244 25.9704 15.1355 25.9806 15.2866 25.9712C15.2934 25.9004 15.2994 25.8279 15.3079 25.7553C15.319 25.6623 15.3685 25.6051 15.4666 25.6043C15.5562 25.6034 15.6091 25.6623 15.6142 25.7622C15.6151 25.7878 15.6151 25.8142 15.6142 25.8398C15.6108 26.0037 15.6108 25.9968 15.7823 26.0054C15.8882 26.0105 15.9248 25.9763 15.9086 25.8748C15.9035 25.8424 15.9078 25.8082 15.9078 25.775C15.9086 25.6777 15.9735 25.6307 16.0554 25.6273C16.1407 25.6231 16.2013 25.6751 16.2056 25.7698C16.2082 25.8142 16.2107 25.8594 16.2056 25.903C16.1936 25.9951 16.2448 26.0062 16.3182 26.0045C16.4027 26.0028 16.3874 25.9499 16.3831 25.897C16.3788 25.8458 16.3754 25.7929 16.3805 25.7425C16.3899 25.6546 16.4496 25.6137 16.5324 25.6137C16.6126 25.6137 16.663 25.6598 16.6749 25.74C16.6826 25.7912 16.6852 25.8432 16.6852 25.8944C16.6852 25.9499 16.6963 25.9891 16.7654 25.9832C16.8285 25.9772 16.8746 25.961 16.8584 25.8825C16.8499 25.839 16.8456 25.7946 16.8422 25.7511C16.8354 25.6632 16.8934 25.5889 16.977 25.5753C17.0538 25.5625 17.1366 25.6239 17.1511 25.7118C17.1596 25.7622 17.1485 25.8185 17.1656 25.8654C17.1758 25.8944 17.2185 25.9209 17.2509 25.9311C17.2791 25.9397 17.3149 25.9166 17.3482 25.9158C17.4421 25.9141 17.4856 25.8816 17.4506 25.7801C17.4378 25.7434 17.4412 25.6999 17.4404 25.6589C17.4387 25.571 17.4839 25.5198 17.5709 25.5096C17.6563 25.5002 17.7134 25.5403 17.7356 25.6231C17.7476 25.6691 17.7476 25.7203 17.7663 25.763C17.78 25.7946 17.8158 25.8381 17.8414 25.8381C17.902 25.8381 17.9455 25.8031 17.9251 25.728C17.9131 25.6854 17.9029 25.6418 17.9003 25.5975C17.8952 25.5113 17.9268 25.4422 18.0172 25.4225C18.1119 25.4021 18.1734 25.4498 18.2015 25.5394C18.216 25.5847 18.2126 25.6384 18.2348 25.6785C18.2502 25.7058 18.2971 25.7323 18.3295 25.7314C18.3833 25.7297 18.4157 25.6956 18.3961 25.6325C18.3799 25.5795 18.3645 25.5258 18.3594 25.4712C18.35 25.3841 18.3978 25.3287 18.4797 25.3116C18.5548 25.2962 18.6197 25.3218 18.6478 25.4012C18.6649 25.4498 18.6675 25.5053 18.6922 25.5488C18.7084 25.5778 18.7545 25.6128 18.7835 25.6103C18.9789 25.5906 19.0003 25.5531 18.9388 25.3619C18.9354 25.3517 18.9311 25.3406 18.9294 25.3304C18.9124 25.2391 18.9559 25.1742 19.0344 25.1452C19.1189 25.1136 19.1863 25.1512 19.2213 25.2365C19.2392 25.2809 19.2537 25.327 19.2682 25.3722C19.2904 25.443 19.345 25.4439 19.3902 25.414C19.4141 25.3978 19.4235 25.3466 19.4244 25.3116C19.4252 25.2809 19.4039 25.2493 19.3928 25.2186C19.3535 25.1051 19.3834 25.0172 19.4704 24.9899C19.5677 24.9592 19.6462 25.0078 19.688 25.1239C19.706 25.1742 19.7282 25.2237 19.7478 25.2732C19.9039 25.2177 19.9039 25.2177 19.8476 25.0923C19.8399 25.0752 19.834 25.0582 19.828 25.0402C19.7913 24.937 19.8186 24.8448 19.8954 24.8107C19.9799 24.7731 20.0678 24.8175 20.1164 24.9216C20.1403 24.9737 20.1634 25.0266 20.189 25.0812C20.2137 25.071 20.2282 25.0667 20.2402 25.0607C20.3024 25.03 20.3938 25.0121 20.4185 24.9626C20.4398 24.9199 20.3724 24.8406 20.3664 24.7757C20.3605 24.7109 20.3639 24.6323 20.3963 24.5829C20.4168 24.5513 20.5098 24.5402 20.5525 24.559C20.6028 24.5811 20.6412 24.6426 20.6719 24.6946C20.7462 24.8243 20.7504 24.8269 20.8682 24.7168C20.8375 24.6605 20.8085 24.6008 20.7752 24.5445C20.7206 24.454 20.7607 24.3866 20.8307 24.3345C20.8938 24.2876 20.9919 24.3166 21.0406 24.3909C21.0781 24.448 21.1123 24.5086 21.1464 24.5658C21.2949 24.5018 21.2966 24.4975 21.224 24.3781C21.207 24.3499 21.1848 24.3226 21.1746 24.2919C21.1481 24.2125 21.1481 24.1331 21.2326 24.0888C21.3154 24.0453 21.3913 24.0666 21.4459 24.1451C21.4707 24.1818 21.486 24.2262 21.5167 24.2569C21.5364 24.2765 21.5842 24.2936 21.6038 24.2825C21.6703 24.2466 21.7292 24.198 21.7983 24.1494C21.7523 24.0828 21.7079 24.029 21.6738 23.9685C21.6311 23.8934 21.6328 23.8166 21.7062 23.7602C21.7796 23.7031 21.8521 23.7193 21.9144 23.7816C21.9374 23.8046 21.9562 23.8336 21.975 23.8601C22.0578 23.9753 22.0637 23.9753 22.1747 23.8541C22.1388 23.8072 22.1004 23.7585 22.0637 23.709C22.0074 23.6339 22.0091 23.5273 22.0654 23.4769C22.1354 23.4146 22.2242 23.4257 22.2992 23.5085C22.3428 23.5563 22.3846 23.6066 22.4255 23.6553C22.5612 23.5606 22.5612 23.5606 22.4691 23.4547C22.4469 23.43 22.4238 23.4053 22.4051 23.3779C22.353 23.302 22.3624 23.2303 22.4307 23.1706C22.5006 23.1091 22.5732 23.1168 22.638 23.1808C22.6722 23.2141 22.7054 23.2499 22.7336 23.2883C22.7694 23.337 22.7984 23.3327 22.842 23.2952C23.0084 23.151 23.0092 23.1527 22.8633 22.9948C22.8531 22.9837 22.8351 22.9726 22.8351 22.9615C22.8334 22.9001 22.8181 22.8301 22.842 22.7789C22.8727 22.7141 22.9478 22.6987 23.0152 22.7362C23.0562 22.7584 23.092 22.7926 23.1261 22.825C23.226 22.9231 23.2371 22.9223 23.3378 22.7687C23.2968 22.7379 23.2464 22.7064 23.2029 22.6671C23.1202 22.5937 23.1048 22.4999 23.1603 22.435C23.2285 22.3548 23.3181 22.3565 23.4128 22.4401C23.4555 22.4777 23.4982 22.5169 23.5391 22.5536C23.6646 22.4393 23.6646 22.4393 23.546 22.3411C23.5204 22.3198 23.4939 22.2993 23.4717 22.2754C23.4146 22.2114 23.4111 22.144 23.4683 22.0766C23.5255 22.0083 23.5963 22.0066 23.6671 22.0467C23.7149 22.0741 23.7516 22.1184 23.7986 22.1466C23.8207 22.1594 23.8694 22.1645 23.8805 22.1509C23.9325 22.092 23.976 22.0246 24.0255 21.9563C23.9598 21.9042 23.9044 21.8616 23.8506 21.8163C23.7798 21.7566 23.773 21.6832 23.8216 21.609C23.8668 21.539 23.9607 21.5271 24.0375 21.5774C24.0947 21.615 24.1501 21.6559 24.2047 21.6935C24.3216 21.5723 24.3216 21.5689 24.1936 21.4835C24.1689 21.4673 24.1424 21.4537 24.1203 21.4341C24.0503 21.3726 24.0264 21.3026 24.087 21.2199C24.1433 21.1431 24.2167 21.1431 24.2935 21.1806C24.3293 21.1985 24.3618 21.2241 24.395 21.248C24.4437 21.2839 24.4846 21.2967 24.5222 21.2318C24.5555 21.1755 24.5529 21.1379 24.488 21.1098C24.4479 21.0919 24.4112 21.0654 24.3754 21.0407C24.2995 20.9878 24.2858 20.9152 24.3242 20.8367C24.3635 20.7565 24.4351 20.7429 24.5128 20.7719C24.564 20.7906 24.6084 20.829 24.6596 20.847C24.6852 20.8555 24.7355 20.8487 24.7475 20.8307C24.7901 20.7685 24.8217 20.6976 24.8601 20.6242C24.791 20.5884 24.7295 20.5637 24.6758 20.527C24.6067 20.4792 24.5478 20.4194 24.5981 20.3239C24.6459 20.2326 24.7202 20.2104 24.8123 20.2505C24.872 20.2761 24.9292 20.3068 24.9855 20.335C25.0854 20.2129 25.0828 20.1984 24.9582 20.137C24.9284 20.1225 24.8951 20.1148 24.8678 20.0977C24.7935 20.0508 24.7594 19.9842 24.7987 19.8998C24.8362 19.8187 24.9036 19.7871 24.9907 19.8178C25.0393 19.8349 25.0837 19.8699 25.1332 19.8759C25.1647 19.8801 25.2117 19.8545 25.233 19.8281C25.2646 19.7888 25.2595 19.7453 25.1989 19.7265C25.1673 19.7163 25.1374 19.7009 25.1067 19.689C24.9966 19.6463 24.9412 19.5644 24.9685 19.4833C25.0009 19.3878 25.0828 19.357 25.2057 19.3954C25.3832 19.4509 25.3832 19.4509 25.4412 19.2709C25.4498 19.2435 25.4591 19.2171 25.4711 19.1813C25.3986 19.1557 25.3328 19.1352 25.268 19.1096C25.192 19.0789 25.1434 19.0217 25.1605 18.9381C25.1767 18.8587 25.2313 18.8058 25.32 18.816C25.3738 18.822 25.4293 18.8357 25.4796 18.857C25.5419 18.8834 25.5709 18.8732 25.594 18.8066C25.6187 18.7367 25.5906 18.7119 25.5325 18.694C25.4762 18.6769 25.4156 18.6675 25.367 18.6377C25.3038 18.5993 25.2646 18.5344 25.3013 18.4576C25.338 18.3817 25.4003 18.3382 25.4907 18.3621C25.5334 18.3731 25.5752 18.3868 25.6179 18.4005C25.6759 18.4184 25.7066 18.3979 25.7203 18.3373C25.7339 18.2759 25.7134 18.2477 25.6528 18.2383C25.6059 18.2306 25.559 18.2178 25.5138 18.2033C25.4293 18.1777 25.3968 18.1154 25.4062 18.0327C25.4156 17.9516 25.4668 17.9047 25.5487 17.9081C25.611 17.9106 25.6725 17.9311 25.7348 17.9345C25.7595 17.9362 25.8013 17.92 25.8099 17.9004C25.8909 17.7101 25.8645 17.6615 25.6656 17.6265C25.6622 17.6256 25.658 17.6256 25.6546 17.6248C25.5513 17.6034 25.4975 17.5377 25.5112 17.4481C25.5248 17.3543 25.6016 17.3056 25.71 17.321C25.7706 17.3295 25.832 17.3389 25.8909 17.3474C25.937 17.1964 25.9268 17.1802 25.7928 17.1631C25.7706 17.1606 25.7484 17.158 25.7262 17.1554C25.6213 17.1443 25.565 17.0872 25.5684 16.9959C25.5718 16.9029 25.6341 16.8508 25.7424 16.8542C25.8107 16.8568 25.879 16.8636 25.9447 16.8687C25.9831 16.716 25.9805 16.7117 25.8457 16.6938C25.809 16.6887 25.7646 16.6981 25.7373 16.6801C25.6887 16.6494 25.6247 16.6076 25.6162 16.5615C25.6068 16.5137 25.6443 16.4412 25.6844 16.4054C25.7151 16.3781 25.7817 16.3866 25.832 16.3857C25.9959 16.3849 25.9882 16.3857 25.9984 16.2227C26.0061 16.1093 25.9609 16.0768 25.8594 16.0905C25.8338 16.0939 25.8073 16.093 25.7817 16.0913C25.6793 16.0862 25.6204 16.0265 25.623 15.9318C25.6264 15.8285 25.6921 15.7918 25.7834 15.7858C25.8278 15.7824 25.8722 15.785 25.9165 15.7867C25.9908 15.7893 26.0087 15.7389 25.9933 15.6851C25.9848 15.6561 25.9421 15.6246 25.9097 15.6177C25.8602 15.6083 25.8073 15.6211 25.7552 15.6203C25.6665 15.6186 25.6187 15.5674 25.611 15.4829C25.6034 15.3993 25.6366 15.3378 25.7279 15.3242C25.7791 15.3165 25.8303 15.308 25.8815 15.3088C25.9438 15.3097 25.9694 15.2841 25.9677 15.2235C25.966 15.1603 25.9438 15.1262 25.8722 15.1416C25.8363 15.1493 25.7988 15.1458 25.7621 15.1493C25.646 15.1586 25.5786 15.1134 25.5701 15.017C25.5615 14.918 25.6238 14.8557 25.7416 14.8455C25.7817 14.8421 25.8244 14.8421 25.8619 14.8293C25.8841 14.8216 25.9114 14.7943 25.9157 14.7721C25.9507 14.5937 25.8867 14.528 25.7092 14.5562C25.7015 14.557 25.6947 14.5587 25.687 14.5596C25.5829 14.5698 25.4984 14.5169 25.4899 14.4256C25.4805 14.3275 25.5402 14.2763 25.629 14.255C25.6921 14.2396 25.757 14.2311 25.8329 14.2174C25.8218 14.1602 25.8124 14.1125 25.8013 14.0561C25.7629 14.0647 25.7356 14.0706 25.7075 14.0758C25.675 14.0817 25.6418 14.0869 25.6085 14.0903C25.495 14.1039 25.4224 14.0604 25.4062 13.9708C25.39 13.8821 25.4429 13.8198 25.5581 13.7907C25.5871 13.7831 25.6153 13.7745 25.6443 13.7694C25.7015 13.76 25.7407 13.7455 25.7228 13.6696C25.7066 13.6005 25.6742 13.5868 25.6127 13.6056C25.5743 13.6175 25.5342 13.6252 25.4941 13.632C25.3943 13.6491 25.3124 13.6056 25.2944 13.5194C25.274 13.4221 25.3337 13.3666 25.4156 13.3351C25.46 13.318 25.5112 13.3171 25.5539 13.2975C25.5778 13.2873 25.6093 13.2531 25.6085 13.2318C25.5948 13.0347 25.5308 12.9937 25.3448 13.0543C25.338 13.0569 25.3311 13.0594 25.3243 13.062C25.2356 13.0885 25.1716 13.056 25.1366 12.9733C25.1007 12.8888 25.1263 12.8197 25.2091 12.7804C25.2552 12.7582 25.3064 12.7463 25.355 12.7292C25.4037 12.7121 25.4472 12.6959 25.4131 12.6277C25.3849 12.5713 25.3584 12.5329 25.2876 12.5713C25.2492 12.5918 25.2048 12.6012 25.163 12.614C25.0683 12.6422 25 12.6046 24.9693 12.5167C24.9395 12.4288 24.989 12.3674 25.0649 12.3281C25.1042 12.3077 25.146 12.2914 25.1886 12.2803C25.2526 12.2641 25.2595 12.2283 25.2373 12.1728C25.2142 12.1139 25.1758 12.1063 25.1221 12.1267C25.0675 12.1472 25.0128 12.172 24.9557 12.1831C24.8703 12.1993 24.7978 12.16 24.7952 12.0747C24.7935 12.0167 24.8371 11.9518 24.8729 11.8998C24.8908 11.8742 24.9369 11.8648 24.9719 11.8554C25.0598 11.8315 25.0675 11.788 25.0274 11.7086C24.9437 11.5456 24.948 11.5431 24.7799 11.6216C24.7603 11.631 24.7398 11.6412 24.7184 11.6463C24.6314 11.6642 24.5614 11.6352 24.5307 11.5507C24.5017 11.4697 24.5392 11.4065 24.6101 11.3647C24.6451 11.3442 24.6818 11.3272 24.7193 11.311C24.7765 11.2871 24.8012 11.2581 24.7628 11.1932C24.7295 11.1369 24.7022 11.1181 24.6425 11.1599C24.5981 11.1906 24.5452 11.212 24.494 11.2316C24.4164 11.2615 24.3609 11.2333 24.3174 11.1633C24.2704 11.0874 24.2943 11.0277 24.3532 10.9782C24.3925 10.9449 24.4368 10.9167 24.4838 10.8954C24.5469 10.8672 24.5555 10.8314 24.5213 10.7742C24.4855 10.7136 24.4445 10.7153 24.3933 10.7512C24.3575 10.7768 24.3225 10.8075 24.2815 10.8229C24.1996 10.8544 24.1168 10.8527 24.0691 10.764C24.0221 10.6778 24.0571 10.607 24.1314 10.5532C24.1672 10.5276 24.215 10.5139 24.2414 10.4815C24.2619 10.4568 24.2756 10.4005 24.2611 10.3766C24.1561 10.1999 24.1535 10.2016 23.9803 10.3074C23.9743 10.3117 23.9675 10.3143 23.9607 10.3177C23.8805 10.3603 23.7704 10.3382 23.7286 10.2639C23.6808 10.1803 23.7192 10.1163 23.7883 10.0642C23.8404 10.025 23.8924 9.98659 23.9428 9.94819C23.8532 9.80483 23.8532 9.80483 23.7346 9.89955C23.7175 9.9132 23.7004 9.92771 23.6816 9.9388C23.5955 9.99171 23.499 9.98061 23.4461 9.90125C23.389 9.81592 23.4308 9.7468 23.499 9.68963C23.546 9.65037 23.5946 9.61283 23.6407 9.57528C23.5588 9.43448 23.5545 9.43363 23.4453 9.52579C23.4316 9.53773 23.4163 9.54883 23.4018 9.55992C23.3139 9.62648 23.2072 9.62733 23.1509 9.56248C23.0997 9.5036 23.1202 9.4012 23.1987 9.32781C23.3386 9.19725 23.3386 9.19725 23.1978 9.06243C23.1927 9.05731 23.1876 9.05219 23.1824 9.04621C23.144 9.00184 23.1133 9.01038 23.0724 9.04878C23.022 9.09571 22.9666 9.15203 22.9051 9.16568C22.8548 9.17763 22.7711 9.14862 22.7396 9.10851C22.7131 9.07438 22.7259 8.99245 22.7464 8.94296C22.766 8.89517 22.8258 8.86531 22.8556 8.82008C22.871 8.79619 22.8718 8.74499 22.8565 8.7228C22.7959 8.63661 22.7472 8.68952 22.702 8.74499C22.6448 8.81496 22.5791 8.88323 22.4793 8.85592C22.3453 8.81923 22.3231 8.67757 22.4571 8.55128C22.568 8.44717 22.5638 8.43864 22.423 8.34989C22.3743 8.40109 22.3274 8.45741 22.2728 8.5052C22.2045 8.56579 22.1218 8.58115 22.0535 8.51459C21.9844 8.44717 22.0006 8.36781 22.0578 8.29528C22.0979 8.24493 22.1363 8.19288 22.1789 8.13656C22.0962 8.07427 22.027 8.02221 21.9596 7.97101C21.8845 8.04355 21.8231 8.11864 21.7446 8.16899C21.707 8.19288 21.6191 8.19117 21.5901 8.16387C21.5543 8.12973 21.5398 8.05379 21.5475 8.00003C21.5543 7.95053 21.6004 7.90445 21.6345 7.86179C21.6729 7.81485 21.6891 7.77645 21.6285 7.73379C21.5688 7.69112 21.5338 7.70648 21.4937 7.76451C21.4544 7.82083 21.4075 7.88056 21.3495 7.91128C21.3085 7.93261 21.2223 7.92664 21.1933 7.89678C21.1592 7.86179 21.1549 7.78755 21.1575 7.73123C21.1583 7.69539 21.1933 7.6604 21.2164 7.62712C21.2974 7.50424 21.2966 7.49997 21.1404 7.43768C21.1054 7.49485 21.0713 7.55544 21.032 7.61261C20.9706 7.70221 20.8819 7.72355 20.8034 7.66637C20.7231 7.60749 20.7248 7.53155 20.7701 7.45048C20.8016 7.39331 20.8332 7.33699 20.8639 7.28152C20.6421 7.10488 20.6412 7.10488 20.5055 7.33101C20.5021 7.33699 20.4996 7.34467 20.4953 7.35064C20.4441 7.41208 20.3869 7.45133 20.3033 7.41123C20.218 7.37027 20.1983 7.30115 20.2222 7.21667C20.2333 7.17827 20.2547 7.14243 20.2734 7.10659C20.3357 6.982 20.3315 6.97432 20.1813 6.93421C20.1642 6.96493 20.1463 6.99651 20.1292 7.02893C20.1104 7.06477 20.0942 7.10232 20.0755 7.13816C20.0311 7.21923 19.9645 7.24312 19.88 7.20899C19.7922 7.174 19.7708 7.10403 19.7956 7.01869C19.8067 6.98029 19.8246 6.94275 19.8442 6.90776C19.8792 6.84547 19.9125 6.79171 19.8084 6.75587C19.7136 6.72344 19.7154 6.79512 19.6932 6.84547C19.6829 6.86936 19.6735 6.89325 19.6624 6.91629C19.6112 7.02893 19.5344 7.07331 19.4517 7.03661C19.3578 6.99565 19.3322 6.90861 19.3791 6.79256C19.4466 6.62445 19.4466 6.62445 19.2904 6.56472C19.1615 6.51523 19.1615 6.51608 19.1206 6.65261C19.1112 6.68419 19.1001 6.71576 19.0873 6.74648C19.0506 6.83181 18.9909 6.87875 18.8953 6.84632C18.8125 6.81901 18.7733 6.72856 18.7997 6.6364C18.8117 6.59373 18.8236 6.55021 18.8432 6.51096C18.8774 6.44269 18.839 6.41624 18.7844 6.39747C18.7255 6.37699 18.6948 6.39491 18.6854 6.45891C18.6777 6.50925 18.6598 6.55875 18.6427 6.60739C18.6103 6.69699 18.5446 6.7388 18.4524 6.71576C18.3679 6.69528 18.3347 6.62957 18.3458 6.54595C18.3526 6.49901 18.3696 6.45293 18.3807 6.40685C18.3893 6.37357 18.3952 6.33944 18.4021 6.30701C18.2416 6.25496 18.2348 6.25923 18.2075 6.40685C18.1998 6.44611 18.1904 6.48621 18.1742 6.52376C18.1427 6.59715 18.0812 6.63384 18.0044 6.61165C17.9285 6.58947 17.8764 6.53485 17.8841 6.44781C17.8884 6.40088 17.902 6.35309 17.9165 6.30787C17.943 6.22595 17.9208 6.18072 17.8312 6.17389C17.8056 6.17219 17.7808 6.1628 17.7561 6.15597C17.6784 6.13293 17.6264 6.14232 17.6272 6.24216C17.6272 6.28909 17.6136 6.33773 17.5999 6.38296C17.5743 6.47085 17.512 6.5084 17.4224 6.49304C17.3354 6.47853 17.2962 6.41965 17.3021 6.33432C17.3072 6.26093 17.3226 6.18925 17.3328 6.11672C17.1886 6.04589 17.1699 6.05613 17.1536 6.20461C17.1494 6.24813 17.1426 6.29336 17.1289 6.33432C17.099 6.42136 17.0325 6.4572 16.9454 6.43331C16.8644 6.41197 16.8277 6.34797 16.8328 6.2652C16.8354 6.22083 16.8413 6.17645 16.8524 6.13379C16.8712 6.06552 16.843 6.03651 16.779 6.02883C16.7082 6.02029 16.6766 6.04931 16.68 6.12269C16.6826 6.17389 16.692 6.23619 16.6681 6.27459C16.6357 6.32749 16.5794 6.38808 16.523 6.40088C16.4522 6.41709 16.3856 6.36589 16.3754 6.28397C16.3686 6.2268 16.3848 6.16707 16.3805 6.10904C16.378 6.07405 16.3609 6.01261 16.3447 6.01091C16.2687 6.00152 16.1868 5.99469 16.116 6.01688C16.0912 6.02456 16.0947 6.11928 16.0853 6.17389C16.0802 6.20291 16.0878 6.24216 16.0716 6.25923C16.0298 6.3036 15.9778 6.36845 15.9291 6.36845C15.8788 6.36845 15.8122 6.31299 15.7815 6.26349C15.7559 6.22253 15.7704 6.15597 15.7704 6.10051C15.7712 6.04675 15.7781 5.99725 15.6962 5.99896C15.6228 5.99981 15.5963 6.02627 15.604 6.0988C15.6091 6.14659 15.6091 6.19523 15.6048 6.24301C15.5972 6.33261 15.5519 6.38381 15.4555 6.38552C15.3565 6.38723 15.3164 6.3292 15.3011 6.24557C15.2934 6.20205 15.2959 6.15683 15.2951 6.11331C15.2942 6.05272 15.2763 6.01688 15.2029 6.02541C15.1295 6.03395 15.1227 6.07832 15.1287 6.13464C15.133 6.17901 15.1423 6.22253 15.1415 6.26691C15.1389 6.36248 15.0826 6.42221 14.9922 6.42904C14.9085 6.43587 14.8548 6.3804 14.8368 6.29933C14.8266 6.25325 14.824 6.20461 14.8223 6.15597C14.8198 6.08515 14.7942 6.06211 14.7174 6.07576C14.5228 6.1116 14.522 6.10733 14.5433 6.30616C14.5433 6.30957 14.5442 6.31384 14.545 6.31725C14.5527 6.41368 14.5032 6.47939 14.4153 6.48877C14.3146 6.49901 14.254 6.45123 14.2395 6.34968C14.2344 6.31299 14.231 6.27629 14.225 6.2396C14.2165 6.18413 14.1926 6.15171 14.1277 6.16707C14.0671 6.18243 14.0364 6.21059 14.0569 6.27629C14.0697 6.31896 14.0987 6.36845 14.0859 6.40344C14.0637 6.46659 14.0287 6.54253 13.9767 6.5724C13.9084 6.6108 13.8316 6.57837 13.7983 6.49304C13.7847 6.45891 13.7744 6.42307 13.7676 6.38723C13.7395 6.24301 13.7156 6.23277 13.5773 6.31128C13.5935 6.38552 13.6174 6.45976 13.6251 6.53571C13.6345 6.6236 13.5773 6.68845 13.4997 6.6876C13.4434 6.68675 13.3776 6.63725 13.3358 6.59203C13.3043 6.55789 13.3 6.49645 13.2923 6.44525C13.2821 6.38637 13.2548 6.37528 13.2002 6.38893C12.9936 6.43843 12.9928 6.43672 13.0448 6.64493C13.0466 6.65176 13.0483 6.65944 13.05 6.66627C13.0687 6.76184 13.0278 6.84291 12.9467 6.85827C12.8554 6.87533 12.788 6.8412 12.7556 6.74989C12.7351 6.69101 12.7155 6.63213 12.6958 6.57496C12.538 6.5852 12.5243 6.61336 12.59 6.77293C12.6378 6.88813 12.6156 6.97005 12.5269 7.00675C12.4356 7.04515 12.3588 7.0076 12.3076 6.89837C12.2965 6.87533 12.2888 6.85059 12.282 6.82584C12.2658 6.7644 12.2444 6.72685 12.1659 6.75672C12.0908 6.78573 12.0883 6.82243 12.1241 6.88216C12.1429 6.91373 12.1557 6.94872 12.1685 6.98285C12.2009 7.06819 12.1685 7.15949 12.09 7.18851C12.008 7.21923 11.9355 7.20301 11.8928 7.11853C11.8715 7.07587 11.8596 7.02808 11.834 6.98797C11.8195 6.96493 11.7768 6.93507 11.7623 6.94104C11.6923 6.97176 11.6189 7.00419 11.5669 7.05709C11.5498 7.07416 11.595 7.15267 11.6121 7.20301C11.613 7.20643 11.6147 7.20984 11.6164 7.21325C11.6642 7.31907 11.6462 7.39843 11.566 7.44024C11.479 7.48547 11.3919 7.45389 11.3356 7.3532C11.3075 7.30371 11.2827 7.25165 11.2571 7.20216C11.1086 7.26616 11.1086 7.26616 11.176 7.39075C11.1846 7.40696 11.1931 7.42317 11.2016 7.43939C11.2511 7.52984 11.2366 7.622 11.1658 7.66467C11.0899 7.70989 10.99 7.68173 10.9371 7.59811C10.903 7.54349 10.8697 7.48888 10.8373 7.43512C10.6896 7.51704 10.6896 7.51704 10.7639 7.63395C10.7792 7.65869 10.7938 7.68515 10.81 7.70904C10.8654 7.79181 10.8347 7.86264 10.7639 7.90787C10.6879 7.95651 10.6077 7.95053 10.5506 7.86691C10.513 7.81229 10.4772 7.75768 10.4336 7.69112C10.3722 7.73123 10.3184 7.76792 10.2621 7.80205C10.2041 7.83704 10.1998 7.87544 10.2391 7.92835C10.2724 7.97272 10.3142 8.01795 10.3236 8.06829C10.333 8.11949 10.3236 8.19544 10.2903 8.22616C10.2579 8.25603 10.1776 8.262 10.1316 8.24408C10.0778 8.22275 10.0351 8.16813 9.99589 8.1212C9.96175 8.07939 9.94298 8.0316 9.87642 8.0828C9.81242 8.13229 9.81498 8.17411 9.86703 8.22701C9.89263 8.25347 9.92933 8.28163 9.93359 8.3132C9.94298 8.3772 9.95663 8.46083 9.92506 8.5052C9.90031 8.53933 9.80218 8.54702 9.75013 8.52824C9.69381 8.50776 9.64773 8.44718 9.60847 8.39598C9.57093 8.34734 9.54191 8.34989 9.5001 8.38573C9.45914 8.42072 9.42927 8.45315 9.47877 8.50349C9.50181 8.52739 9.52314 8.55299 9.54533 8.57773C9.62639 8.67416 9.63322 8.76291 9.5641 8.82093C9.48218 8.89005 9.39343 8.87384 9.30469 8.77485C9.27141 8.73731 9.23557 8.70147 9.19973 8.66307C9.17071 8.68696 9.15109 8.70403 9.13061 8.72024C8.97445 8.84568 8.97445 8.84568 9.11098 8.98904C9.18607 9.0684 9.19887 9.16824 9.1417 9.22456C9.07258 9.29283 8.98298 9.28686 8.89509 9.20664C8.85327 9.16824 8.81146 9.12899 8.76367 9.08376C8.72271 9.13325 8.69029 9.17165 8.65701 9.21176C8.70821 9.25955 8.75087 9.29965 8.79354 9.33976C8.8601 9.40376 8.88229 9.478 8.82767 9.55821C8.77903 9.62904 8.67749 9.6316 8.59045 9.56845C8.53754 9.53005 8.4889 9.48739 8.43941 9.44728C8.32506 9.56333 8.32506 9.56333 8.43599 9.65293C8.45306 9.66659 8.47098 9.68024 8.48719 9.6956C8.56143 9.76643 8.57594 9.85347 8.52559 9.91064C8.46159 9.98232 8.37029 9.99171 8.28666 9.93112C8.23717 9.89528 8.19023 9.85603 8.14159 9.81763C8.12197 9.83469 8.10917 9.84323 8.10063 9.85432C7.95727 10.0267 7.95727 10.0258 8.12367 10.1726C8.18597 10.2281 8.22778 10.2938 8.17231 10.3757C8.11599 10.4593 8.02554 10.4738 7.9385 10.4184C7.88389 10.3834 7.83183 10.3441 7.77893 10.3083C7.67055 10.4354 7.67141 10.4346 7.79343 10.5199C7.82927 10.5447 7.86767 10.5703 7.89669 10.6018C7.95642 10.6684 7.94191 10.7469 7.86938 10.7998C7.76015 10.88 7.67397 10.8203 7.59034 10.7546C7.53829 10.7136 7.50074 10.7153 7.46405 10.7717C7.4265 10.8288 7.43845 10.8647 7.49818 10.8937C7.53743 10.9133 7.57498 10.9381 7.61082 10.9637C7.68847 11.02 7.70981 11.0934 7.65775 11.1761C7.60911 11.2538 7.53829 11.2691 7.45637 11.2248C7.39578 11.1923 7.33605 11.1582 7.26607 11.119C7.21743 11.2077 7.17221 11.2896 7.12527 11.3758C7.20463 11.4193 7.27461 11.4535 7.33861 11.4953C7.41797 11.5456 7.4265 11.6275 7.38725 11.7001C7.3497 11.7692 7.27887 11.8008 7.19695 11.7632C7.13039 11.7325 7.06554 11.7001 6.9913 11.6642C6.9657 11.7137 6.94266 11.7573 6.9145 11.8102C6.98789 11.8451 7.05103 11.8742 7.11247 11.9057C7.19439 11.9484 7.23621 12.0133 7.19866 12.1063C7.16623 12.1865 7.07322 12.2181 6.98533 12.1848C6.96143 12.1754 6.93669 12.166 6.91365 12.1549C6.78309 12.0909 6.76687 12.0994 6.73701 12.2539C6.80783 12.2863 6.88378 12.3153 6.95375 12.3546C7.03397 12.4007 7.05274 12.4783 7.01007 12.5551C6.97167 12.6234 6.90767 12.6618 6.82319 12.6259C6.77541 12.6063 6.72933 12.5816 6.67983 12.5696C6.65423 12.5637 6.60559 12.5722 6.59877 12.5875C6.56719 12.6601 6.54757 12.7377 6.52538 12.8077C6.53903 12.8222 6.5433 12.8299 6.54927 12.8325C6.60474 12.8529 6.66021 12.8717 6.71567 12.8922C6.81039 12.9263 6.85562 13.0142 6.82575 13.103C6.80101 13.1763 6.71567 13.2122 6.62522 13.1866C6.58597 13.1755 6.54671 13.1661 6.50917 13.1507C6.45797 13.1286 6.41701 13.1217 6.39823 13.1909C6.38202 13.2523 6.38202 13.3001 6.46053 13.3146C6.50746 13.3231 6.55439 13.3368 6.59877 13.3547C6.69093 13.3914 6.71738 13.4665 6.68837 13.5535C6.66191 13.6329 6.59706 13.667 6.51173 13.6474C6.46479 13.6363 6.41957 13.6218 6.37349 13.6073C6.30351 13.5842 6.27109 13.6286 6.26938 13.6832C6.26853 13.7122 6.30266 13.7558 6.33253 13.7703C6.37775 13.7925 6.43322 13.7907 6.48186 13.8078C6.57317 13.8394 6.60986 13.9085 6.58597 13.9998C6.56207 14.0886 6.49125 14.1167 6.40506 14.1065C6.36837 14.1022 6.33167 14.0954 6.29754 14.0826C6.20282 14.0493 6.16783 14.0937 6.16186 14.1816C6.16015 14.2072 6.15503 14.2328 6.14906 14.2584C6.12943 14.336 6.16527 14.3659 6.23951 14.3736C6.29413 14.3795 6.34959 14.3898 6.39994 14.4094C6.47503 14.4401 6.50405 14.5058 6.48101 14.5818C6.45711 14.6603 6.39823 14.703 6.3129 14.6961C6.27621 14.6936 6.24037 14.6816 6.20453 14.6739C6.1465 14.6629 6.08762 14.6381 6.07055 14.7328C6.05434 14.8224 6.09786 14.8438 6.17381 14.8446C6.21477 14.8446 6.25573 14.8463 6.29498 14.854C6.38458 14.8719 6.43663 14.947 6.42298 15.0323C6.40847 15.1219 6.34362 15.1689 6.24719 15.1595C6.20709 15.1552 6.16613 15.151 6.12687 15.1424C6.05775 15.1279 6.02618 15.151 6.01935 15.2252C6.01253 15.3063 6.05178 15.3191 6.11749 15.3182C6.16869 15.3174 6.22159 15.3199 6.27194 15.3285C6.3513 15.343 6.39226 15.3967 6.39055 15.4769C6.38885 15.5563 6.3513 15.6135 6.26767 15.622C6.21647 15.6271 6.16442 15.6211 6.11322 15.616C6.02618 15.6066 5.98607 15.628 5.99119 15.7295C6.00058 15.9045 5.99461 15.9045 6.17125 15.9096C6.18575 15.9096 6.20111 15.9096 6.21562 15.9113C6.30693 15.9249 6.36666 15.9736 6.37349 16.0683C6.37946 16.1528 6.30693 16.2219 6.20965 16.2287C6.16186 16.2321 6.11151 16.2202 6.06629 16.2321C6.03727 16.2398 5.99375 16.2825 5.99717 16.303C6.00229 16.3345 6.03813 16.3755 6.06799 16.384C6.11578 16.3977 6.17039 16.3857 6.22245 16.3883C6.31973 16.3917 6.39482 16.4591 6.38799 16.5445C6.38031 16.6392 6.31973 16.687 6.22586 16.6938C6.18149 16.6972 6.1337 16.6904 6.09445 16.7057C6.06287 16.7177 6.04069 16.7561 6.01423 16.7825C6.04495 16.8107 6.07141 16.8551 6.10725 16.8627C6.1593 16.8747 6.21733 16.8602 6.27194 16.8576C6.3641 16.8542 6.41103 16.9148 6.42127 16.9916C6.43151 17.0718 6.39055 17.1358 6.30266 17.1529C6.25573 17.1623 6.20794 17.1674 6.16015 17.1708C6.08677 17.1751 6.05263 17.2024 6.06629 17.2826C6.1081 17.5283 6.08591 17.4899 6.29071 17.4507C6.29413 17.4498 6.29754 17.449 6.30181 17.4481C6.39738 17.4336 6.46053 17.478 6.48954 17.565C6.51514 17.6427 6.46223 17.7255 6.37349 17.7511C6.33167 17.7639 6.28645 17.769 6.24207 17.769C6.16357 17.7698 6.15162 17.8082 6.16101 17.8765C6.1721 17.9516 6.21391 17.9542 6.27194 17.9388C6.31461 17.9277 6.35813 17.9175 6.40165 17.9106C6.49551 17.8961 6.55354 17.9465 6.57573 18.0284C6.59962 18.1154 6.55951 18.1794 6.46991 18.2059C6.42383 18.2195 6.37775 18.2332 6.32997 18.24C6.28047 18.2477 6.24122 18.2571 6.25743 18.3211C6.27279 18.3791 6.29071 18.4295 6.36922 18.4022C6.40335 18.3902 6.4409 18.3859 6.47759 18.3783C6.58426 18.3544 6.66703 18.3962 6.68581 18.4849C6.70458 18.572 6.6457 18.6522 6.54586 18.6778C6.48698 18.6931 6.42981 18.7119 6.3641 18.7315C6.39653 18.8339 6.42383 18.9201 6.45285 19.0123C6.52026 18.991 6.57573 18.9713 6.63119 18.9551C6.74298 18.9227 6.8249 18.9585 6.85477 19.0524C6.87951 19.1301 6.82149 19.2145 6.71909 19.2504C6.66447 19.2691 6.61071 19.2905 6.55695 19.3093C6.60303 19.4663 6.6073 19.4688 6.72421 19.4219C6.87866 19.3587 6.96741 19.3775 7.00922 19.4808C7.04677 19.5729 6.99386 19.6438 6.84197 19.7069C6.70287 19.7649 6.69946 19.7854 6.80869 19.8998C6.83429 19.8895 6.86159 19.8801 6.8889 19.8682C6.91962 19.8554 6.94863 19.8383 6.98021 19.8281C7.07407 19.7974 7.15599 19.8315 7.19013 19.9185C7.22511 20.009 7.17391 20.0662 7.10223 20.1088C7.06469 20.131 7.01861 20.1404 6.98191 20.1643C6.95887 20.1788 6.92986 20.2129 6.93327 20.2343C6.95717 20.416 7.04421 20.4604 7.20805 20.381C7.30959 20.3324 7.39407 20.3495 7.4393 20.4288C7.48367 20.5056 7.4521 20.5927 7.35738 20.6507C7.30277 20.684 7.2473 20.7155 7.18501 20.7522C7.22085 20.8051 7.2473 20.8435 7.27546 20.8854C7.33861 20.8487 7.39066 20.8145 7.44613 20.7872C7.56133 20.7309 7.70554 20.8069 7.68079 20.9195C7.66714 20.9826 7.60058 21.0458 7.54255 21.0859C7.41626 21.1729 7.41114 21.1832 7.52634 21.2924C7.55109 21.2779 7.57583 21.2634 7.60143 21.248C7.62959 21.231 7.65775 21.213 7.68677 21.196C7.77807 21.1431 7.85487 21.1576 7.90863 21.2361C7.95386 21.3035 7.93509 21.3897 7.85743 21.4486C7.80282 21.4895 7.74479 21.5271 7.68165 21.5714C7.74309 21.6551 7.79599 21.7285 7.85231 21.8053C7.92143 21.7583 7.97775 21.7174 8.03663 21.6807C8.12367 21.6269 8.19621 21.6593 8.24655 21.7353C8.29434 21.807 8.27727 21.8769 8.20986 21.9315C8.17573 21.9597 8.14159 21.9887 8.10319 22.0109C8.04773 22.0433 8.04346 22.0766 8.08271 22.1261C8.12111 22.1747 8.1561 22.1944 8.20901 22.1423C8.24314 22.109 8.28325 22.0809 8.32335 22.0553C8.40271 22.0032 8.47866 22.0254 8.52986 22.0928C8.58191 22.1619 8.57338 22.2396 8.50426 22.301C8.47439 22.3283 8.44111 22.3522 8.40954 22.3778C8.36602 22.412 8.32847 22.4418 8.38394 22.5016C8.43173 22.5536 8.46927 22.5647 8.51791 22.5067C8.53925 22.4811 8.56655 22.4615 8.59215 22.441C8.68005 22.3693 8.76453 22.3693 8.82767 22.4401C8.88485 22.505 8.87546 22.5895 8.80122 22.6663C8.65615 22.8147 8.65615 22.8147 8.80719 22.9598C8.82255 22.9752 8.84133 22.9871 8.85754 23.0008C8.86778 23.0093 8.87802 23.0178 8.88826 23.0264C8.92837 22.9735 8.96165 22.9137 9.00858 22.8685C9.07941 22.7994 9.17839 22.8019 9.23557 22.8694C9.29786 22.9419 9.29189 23.0178 9.22874 23.0878C9.20399 23.1151 9.17839 23.1424 9.15109 23.1663C9.09903 23.2107 9.08879 23.2491 9.14597 23.302C9.20399 23.3558 9.23557 23.3242 9.27226 23.2815C9.30127 23.2482 9.32943 23.2133 9.36186 23.1834C9.42501 23.1262 9.49242 23.1194 9.56154 23.1766C9.63066 23.2337 9.6281 23.3071 9.59311 23.3771C9.57263 23.4189 9.53594 23.4539 9.50095 23.4863C9.45573 23.5281 9.43781 23.5597 9.49413 23.6118C9.55045 23.6638 9.58714 23.6578 9.62725 23.599C9.64431 23.5751 9.66394 23.552 9.68271 23.5298C9.7561 23.4454 9.86106 23.424 9.92421 23.4786C9.99503 23.5401 9.99418 23.6271 9.92079 23.7253C9.88666 23.7705 9.85167 23.8157 9.80986 23.8712C9.89519 23.9292 9.96261 24.0009 10.0411 24.0171C10.0752 24.0239 10.1324 23.9173 10.1802 23.8626C10.1896 23.8515 10.2007 23.8345 10.2126 23.8336C10.2741 23.8311 10.3526 23.8089 10.391 23.8387C10.4302 23.8686 10.4413 23.9505 10.4439 24.0103C10.4447 24.0427 10.4038 24.0777 10.3799 24.111C10.2928 24.2304 10.2963 24.2432 10.4422 24.3106C10.4746 24.2646 10.5079 24.2168 10.542 24.169C10.6111 24.0709 10.7093 24.0401 10.7852 24.093C10.8646 24.1494 10.8688 24.2398 10.7972 24.3482C10.7562 24.3926 10.7272 24.4344 10.6948 24.4813Z" fill="#F1F0EF"/>
<path d="M19.0182 16.0051C19.0301 17.6811 17.6776 19.0123 16.0793 19.037C14.2847 19.0643 12.9774 17.6981 12.9518 16.076C12.9237 14.2703 14.3351 13.0287 15.8327 12.9724C17.6776 12.9033 19.0497 14.371 19.0182 16.0051ZM16.0836 18.7324C17.6733 18.6667 18.8091 17.3278 18.7127 15.8473C18.6052 14.2063 17.2475 13.1968 15.8122 13.2804C14.2805 13.37 13.1327 14.6961 13.2718 16.2603C13.405 17.757 14.6798 18.7614 16.0836 18.7324Z" fill="#F1F0EF"/>
<path d="M8.81232 13.225C9.18096 13.5424 9.52485 13.8394 9.86874 14.1363C9.89434 14.1577 9.92677 14.1756 9.94213 14.2029C9.96432 14.2413 9.99845 14.2985 9.9848 14.3258C9.96688 14.3608 9.908 14.3787 9.86362 14.3958C9.84144 14.4043 9.81242 14.3966 9.78682 14.3966C9.18437 14.3906 8.58192 14.3847 7.98032 14.377C7.89328 14.3761 7.8216 14.3813 7.79258 14.4854C7.77125 14.5613 7.7064 14.5331 7.66629 14.5075C7.63898 14.4896 7.60826 14.4376 7.61594 14.4128C7.69445 14.179 7.78149 13.9478 7.86512 13.7157C7.8856 13.6602 7.91802 13.6406 7.97605 13.667C8.02469 13.6883 8.0793 13.7003 8.05626 13.7728C8.04944 13.7933 8.04261 13.8146 8.02896 13.8573C8.45221 13.8778 8.86693 13.8974 9.2808 13.917C9.29018 13.9068 9.29957 13.8957 9.30896 13.8855C9.28421 13.8735 9.2552 13.8658 9.23472 13.8488C9.00517 13.6627 8.77904 13.4725 8.54693 13.2898C8.49829 13.2514 8.42746 13.2233 8.36688 13.2224C8.32165 13.2216 8.25765 13.2625 8.23376 13.3035C8.19024 13.3777 8.14501 13.3479 8.09381 13.3299C8.03493 13.3103 8.02725 13.2728 8.04858 13.2173C8.12965 13.004 8.20816 12.7889 8.28496 12.5739C8.30714 12.5107 8.32933 12.4681 8.4104 12.4971C8.48805 12.5244 8.51024 12.5645 8.47269 12.6379C8.46586 12.6507 8.46416 12.6652 8.45221 12.7087C8.87546 12.7275 9.28848 12.7454 9.70149 12.7642C9.70405 12.7531 9.70832 12.7429 9.70661 12.742C9.41221 12.5133 9.11696 12.2855 8.82341 12.0568C8.7449 11.9953 8.69285 12.0047 8.6664 12.1071C8.64592 12.1873 8.59301 12.1694 8.53584 12.1489C8.47354 12.1267 8.45818 12.0952 8.48293 12.032C8.54608 11.8707 8.60496 11.7078 8.66213 11.5448C8.68346 11.485 8.71162 11.4577 8.77648 11.485C8.82938 11.5072 8.88912 11.5234 8.85242 11.6002C8.81061 11.6881 8.86181 11.7376 8.92069 11.788C9.37808 12.1797 9.83632 12.5705 10.2929 12.9639C10.3543 13.0168 10.4507 13.0629 10.4149 13.1661C10.3773 13.2753 10.2724 13.2361 10.193 13.2361C9.76805 13.2352 9.34309 13.231 8.91813 13.2275C8.89253 13.225 8.86778 13.225 8.81232 13.225Z" fill="#F1F0EF"/>
<path d="M9.61962 16.4608C9.36106 16.6964 9.1264 16.9114 8.89088 17.1256C8.89685 17.1341 8.90197 17.1427 8.90794 17.1503C9.16565 17.1102 9.42336 17.0701 9.68704 17.0292C9.68533 16.9942 9.68704 16.9694 9.68192 16.9455C9.66314 16.8559 9.7169 16.8406 9.78688 16.8295C9.86538 16.8167 9.8816 16.8585 9.89013 16.9216C9.92085 17.1486 9.95413 17.3748 9.98826 17.6017C9.99765 17.6649 10.0036 17.7187 9.91573 17.7306C9.83552 17.7417 9.78432 17.7306 9.78346 17.6359C9.78346 17.6145 9.77237 17.5941 9.76128 17.554C9.18954 17.6367 8.61781 17.7195 8.0401 17.8031C8.04522 17.8475 8.04778 17.8757 8.0529 17.9038C8.06741 17.9832 8.01536 17.9943 7.95648 18.0062C7.89333 18.0199 7.85493 18.0028 7.84469 17.9363C7.8097 17.6913 7.77557 17.4464 7.73973 17.2015C7.73034 17.1375 7.76192 17.1136 7.81738 17.1068C7.87285 17.1 7.94112 17.0855 7.94368 17.1674C7.94709 17.2638 7.99317 17.2724 8.07253 17.2604C8.27648 17.2297 8.48128 17.2049 8.68522 17.1785C8.69034 17.1665 8.69461 17.1546 8.69973 17.1427C8.43178 16.9814 8.16384 16.8201 7.89589 16.6588C7.87712 16.7168 7.87541 16.7774 7.84469 16.8039C7.77216 16.8662 7.68682 16.8235 7.67317 16.7271C7.64501 16.5368 7.62026 16.3465 7.5904 16.1571C7.58016 16.0913 7.58698 16.0487 7.66293 16.0393C7.73205 16.0299 7.77386 16.035 7.79946 16.1212C7.82421 16.204 7.87541 16.2944 7.94197 16.3473C8.13738 16.5035 8.34645 16.6426 8.56405 16.7979C8.6545 16.704 8.73386 16.6179 8.81664 16.5351C9.02229 16.3277 9.23221 16.1255 9.4336 15.9139C9.47456 15.8712 9.50442 15.7987 9.50357 15.7406C9.50186 15.6459 9.55733 15.6416 9.62133 15.6305C9.70325 15.6177 9.71093 15.6724 9.71861 15.7304C9.75104 15.9642 9.78261 16.1989 9.81845 16.4318C9.82784 16.4907 9.84405 16.5445 9.76469 16.5615C9.69728 16.5795 9.6256 16.5982 9.61962 16.4608Z" fill="#F1F0EF"/>
<path d="M22.894 13.5894C22.6448 13.6627 22.3948 13.7361 22.1414 13.8104C22.1465 13.8445 22.1456 13.871 22.155 13.8931C22.1892 13.9734 22.1422 13.9972 22.0782 14.0177C22.0091 14.0391 21.9775 14.0169 21.9596 13.9478C21.899 13.7199 21.8359 13.4921 21.7676 13.2668C21.7454 13.1943 21.7693 13.1652 21.8342 13.1465C21.8956 13.1286 21.9434 13.1268 21.963 13.2019C21.9698 13.2301 21.9801 13.2583 21.9937 13.3052C22.5561 13.1473 23.115 12.9903 23.6757 12.8324C23.6646 12.7386 23.5972 12.6404 23.7465 12.6148C23.8105 12.6038 23.8361 12.6251 23.8514 12.6788C23.9172 12.9127 23.9812 13.1482 24.0486 13.3811C24.069 13.4511 24.0349 13.4759 23.9777 13.4912C23.9248 13.5057 23.8685 13.5185 23.8557 13.4443C23.8386 13.3453 23.7874 13.3462 23.7064 13.37C23.5093 13.4281 23.3087 13.4776 23.1099 13.5305C23.1065 13.5433 23.1031 13.5561 23.0988 13.568C23.3898 13.6952 23.6816 13.8223 23.9709 13.9486C23.9829 13.8846 23.9752 13.8232 24.0025 13.795C24.0725 13.7233 24.151 13.754 24.1783 13.8539C24.2303 14.0382 24.2798 14.2234 24.3344 14.4068C24.3524 14.4674 24.3455 14.5067 24.2798 14.5255C24.2201 14.5417 24.1706 14.5553 24.1382 14.4734C24.1126 14.4077 24.0742 14.33 24.0178 14.2959C23.7823 14.1534 23.5383 14.0263 23.2934 13.8906C23.0229 14.243 22.7652 14.5758 22.5134 14.912C22.4861 14.9479 22.4733 15.0127 22.4844 15.0562C22.51 15.1552 22.4528 15.1697 22.3829 15.1868C22.2984 15.2073 22.2958 15.1441 22.2805 15.0912C22.219 14.8711 22.1576 14.6509 22.0961 14.4307C22.0808 14.377 22.0398 14.3181 22.1277 14.2848C22.1985 14.2575 22.2583 14.2515 22.2873 14.365C22.5057 14.1073 22.7114 13.8641 22.917 13.6218C22.9102 13.6098 22.9017 13.5996 22.894 13.5894Z" fill="#F1F0EF"/>
<path d="M20.3673 10.0105C20.3673 10.2955 20.3708 10.578 20.3656 10.8604C20.3639 10.9688 20.3912 11.0575 20.4817 11.1198C20.544 11.1625 20.5201 11.2 20.4877 11.2478C20.4467 11.3067 20.4134 11.2854 20.3691 11.2538C20.2402 11.1616 20.1122 11.0669 19.9765 10.9841C19.9065 10.9415 19.8784 10.8894 19.8852 10.8126C19.9031 10.5993 19.9236 10.386 19.939 10.1726C19.9449 10.0958 19.9535 10.0156 19.9381 9.94138C19.9245 9.87567 19.8792 9.81679 19.8477 9.75535C19.8349 9.75706 19.8221 9.75876 19.8093 9.75962C19.6898 9.94394 19.5703 10.1283 19.4517 10.3143C19.421 10.3621 19.4312 10.3988 19.4816 10.4346C19.5908 10.5131 19.5883 10.5174 19.4782 10.6283C19.456 10.6164 19.4295 10.6053 19.4065 10.5899C19.2085 10.4542 19.0114 10.3177 18.8126 10.1829C18.7648 10.1504 18.7307 10.1257 18.7742 10.0608C18.8143 10.0003 18.8527 9.98746 18.9064 10.0361C18.9798 10.1018 19.0293 10.0839 19.0839 10.0045C19.3527 9.61114 19.6258 9.22116 19.8963 8.82863C20.0158 8.65626 20.0141 8.65455 19.8681 8.5146C19.9253 8.36698 19.9364 8.36612 20.0627 8.45402C20.2991 8.61956 20.5372 8.78084 20.7752 8.94212C20.9408 9.05391 21.0526 9.20239 21.108 9.3961C21.236 9.8441 20.7932 10.118 20.4911 10.0378C20.4441 10.0267 20.3989 10.0173 20.3673 10.0105ZM19.9074 9.62991C20.1924 9.84751 20.5175 9.77412 20.6617 9.46863C20.7496 9.28175 20.6993 9.09231 20.5337 8.96943C20.4638 8.91738 20.4134 8.91823 20.3605 8.99503C20.2129 9.20666 20.061 9.41487 19.9074 9.62991Z" fill="#F1F0EF"/>
<path d="M22.3539 16.9856C22.5621 16.9549 22.7575 16.9259 22.9623 16.8951C22.9871 16.7202 23.0144 16.5495 23.0332 16.3789C23.0357 16.3524 23.0101 16.3097 22.9862 16.2969C22.865 16.2338 22.7422 16.1741 22.6167 16.122C22.5075 16.0768 22.4734 16.0998 22.4563 16.2176C22.4461 16.2867 22.4298 16.3388 22.3394 16.3234C22.2532 16.3089 22.2344 16.2722 22.2498 16.186C22.2856 15.9863 22.3095 15.7849 22.3351 15.5836C22.3445 15.511 22.3624 15.4658 22.4512 15.4786C22.5314 15.4905 22.5613 15.5247 22.5433 15.604C22.5177 15.7227 22.5877 15.7935 22.6782 15.8455C23.1134 16.0947 23.5494 16.3422 23.9872 16.5871C24.0546 16.6246 24.1177 16.6835 24.2108 16.6494C24.2227 16.6451 24.2679 16.6963 24.279 16.7279C24.3191 16.8371 24.3481 16.9515 24.3874 17.0607C24.4147 17.1375 24.3763 17.1622 24.3132 17.1733C24.0264 17.2254 23.7397 17.2774 23.453 17.3303C23.1193 17.3926 22.7857 17.4558 22.452 17.5189C22.3385 17.5403 22.2464 17.5846 22.2404 17.7195C22.237 17.8056 22.1841 17.8082 22.1175 17.7988C22.045 17.7894 22.0254 17.751 22.0356 17.6845C22.0689 17.466 22.1013 17.2467 22.1337 17.0274C22.1406 16.9839 22.1457 16.9395 22.1482 16.8951C22.1525 16.8166 22.1679 16.7586 22.2711 16.7705C22.3778 16.7825 22.3735 16.8439 22.3548 16.9199C22.3513 16.9344 22.3539 16.9497 22.3539 16.9856ZM23.174 16.8695C23.4103 16.8371 23.6382 16.8064 23.8967 16.7714C23.6621 16.6468 23.4547 16.5367 23.238 16.4215C23.2149 16.5794 23.1961 16.7176 23.174 16.8695Z" fill="#F1F0EF"/>
<path d="M15.0673 9.4626C14.9751 9.28425 14.8906 9.117 14.8019 8.95316C14.7925 8.93524 14.7524 8.92159 14.7302 8.92585C14.574 8.95145 14.4179 8.98132 14.2626 9.0146C14.2421 9.01887 14.2139 9.05044 14.2114 9.07177C14.1917 9.21769 14.1738 9.36447 14.1627 9.51209C14.1559 9.59913 14.1943 9.64692 14.2916 9.61705C14.3752 9.59145 14.4452 9.60511 14.4435 9.70921C14.4426 9.74335 14.4059 9.80052 14.3769 9.80735C14.1576 9.85599 13.9357 9.89439 13.7147 9.93791C13.6456 9.95156 13.6192 9.91572 13.6098 9.85684C13.6012 9.80479 13.5884 9.74591 13.6652 9.73737C13.8146 9.72116 13.8692 9.62047 13.8931 9.49161C13.9904 8.98047 14.0868 8.46932 14.1815 7.95732C14.1875 7.92575 14.1943 7.88137 14.1781 7.86175C14.1081 7.77471 14.1653 7.74399 14.2319 7.70303C14.3155 7.65097 14.4017 7.59721 14.4708 7.52809C14.5467 7.453 14.5817 7.48628 14.621 7.55625C14.7925 7.86601 14.9632 8.17577 15.1355 8.48383C15.2652 8.71508 15.3967 8.94548 15.5272 9.17673C15.5912 9.29023 15.6646 9.37812 15.8173 9.32948C15.8865 9.30729 15.901 9.36703 15.9129 9.42079C15.9291 9.49759 15.8916 9.52745 15.8216 9.54025C15.6108 9.57609 15.4001 9.61449 15.1893 9.65289C15.1424 9.66143 15.0946 9.67081 15.0485 9.68276C14.9811 9.70068 14.9196 9.7186 14.8923 9.62132C14.8625 9.51465 14.9231 9.49247 15.005 9.48052C15.0178 9.47967 15.0314 9.47369 15.0673 9.4626ZM14.3667 8.0674C14.324 8.33023 14.2865 8.56404 14.2472 8.80809C14.4042 8.77737 14.5459 8.75007 14.6935 8.72105C14.5843 8.50345 14.4819 8.29865 14.3667 8.0674Z" fill="#F1F0EF"/>
<path d="M17.5888 7.79522C17.5308 8.06828 17.4745 8.33538 17.4182 8.60076C17.652 8.68183 17.7791 8.66306 17.8722 8.47447C17.8858 8.44716 17.9575 8.43266 17.9976 8.43948C18.0223 8.44375 18.0582 8.50348 18.0531 8.53335C18.0215 8.7262 17.9788 8.91735 17.9447 9.10935C17.9327 9.1742 17.8995 9.19298 17.838 9.19298C17.7783 9.19298 17.7476 9.17164 17.7442 9.11191C17.7331 8.89687 17.6324 8.8397 17.3755 8.80898C17.3286 9.03852 17.2817 9.26892 17.2313 9.51298C17.2953 9.52663 17.3508 9.53858 17.4071 9.55052C17.4779 9.56588 17.489 9.60684 17.4719 9.67426C17.4549 9.73996 17.4327 9.76812 17.3576 9.75191C17.0905 9.69303 16.8234 9.63927 16.5555 9.58636C16.4898 9.57356 16.4565 9.54626 16.4727 9.47372C16.488 9.4029 16.5111 9.35426 16.5981 9.38412C16.6288 9.39436 16.6621 9.39436 16.7065 9.40119C16.7714 9.10252 16.8379 8.80812 16.9002 8.51287C16.9497 8.2782 16.9907 8.04098 17.0453 7.80802C17.0683 7.70818 17.0359 7.6749 16.9446 7.66295C16.8908 7.65527 16.8183 7.66295 16.82 7.57164C16.8217 7.46583 16.8584 7.43852 16.9659 7.45986C17.454 7.55884 17.943 7.65698 18.4319 7.75255C18.4968 7.76535 18.5301 7.7901 18.5301 7.86007C18.5318 8.01196 18.5446 8.163 18.5395 8.31404C18.5386 8.34988 18.4925 8.40108 18.4558 8.41474C18.4294 8.42412 18.3842 8.38316 18.3483 8.36183C18.3398 8.35671 18.3372 8.34306 18.3321 8.33367C18.1 7.88823 18.1307 7.90956 17.5888 7.79522Z" fill="#F1F0EF"/>
<path d="M12.3332 10.4935C12.3751 10.5353 12.4007 10.5609 12.4331 10.5933C12.4024 10.6257 12.3819 10.6505 12.3588 10.6718C12.1788 10.8468 11.9953 11.0183 11.8204 11.1983C11.7461 11.2751 11.7018 11.2657 11.6531 11.1761C11.6898 11.1326 11.7265 11.0883 11.7709 11.0353C11.7342 11.0063 11.706 10.9782 11.6719 10.9585C11.5345 10.8792 11.3946 10.8041 11.2589 10.723C11.2043 10.6906 11.171 10.6966 11.1275 10.7427C11.0174 10.857 10.8979 10.9628 10.7887 11.078C10.7674 11.1011 10.758 11.1574 10.7699 11.1864C10.822 11.3076 10.8817 11.427 10.9449 11.5431C11.0319 11.7018 11.0865 11.7086 11.2205 11.5857C11.2307 11.5764 11.2435 11.5678 11.264 11.5516C11.293 11.5789 11.3203 11.6054 11.3272 11.6113C11.1522 11.8025 10.9816 11.9885 10.7955 12.1916C10.7614 12.1532 10.7349 12.1251 10.7 12.0858C10.8911 11.9501 10.8425 11.7897 10.7725 11.625C10.5813 11.1736 10.3936 10.7213 10.2008 10.2716C10.1752 10.2119 10.1248 10.1632 10.077 10.0967C10.1214 9.98319 10.1752 9.84495 10.2349 9.69391C10.2605 9.70586 10.2955 9.72122 10.3296 9.73828C10.8237 9.99514 11.3178 10.252 11.8119 10.508C11.8511 10.5285 11.8921 10.5455 11.9313 10.566C12.0764 10.642 12.2146 10.6812 12.3332 10.4935ZM11.0592 10.607C10.8203 10.4687 10.5805 10.3296 10.3399 10.1905C10.3339 10.1957 10.3279 10.2008 10.3211 10.2059C10.438 10.4662 10.5557 10.7264 10.6812 11.0046C10.8152 10.863 10.9346 10.7384 11.0592 10.607Z" fill="#F1F0EF"/>
<path d="M17.978 23.2278C17.9123 23.2721 17.8636 23.3122 17.809 23.3404C17.4438 23.5281 17.076 23.3336 17.0205 22.9265C16.9583 22.4691 17.2083 22.1474 17.6512 22.1159C17.908 22.0971 18.1666 22.266 18.2792 22.5553C18.4721 23.0494 18.3884 23.8225 17.7775 24.2142C17.7288 24.2458 17.6605 24.2466 17.6008 24.262C17.6307 24.2168 17.6554 24.1656 17.6921 24.1263C17.9217 23.8729 18.0036 23.5742 17.978 23.2278ZM17.9439 23.0059C17.9524 23.0025 17.9618 22.9999 17.9703 22.9965C17.8969 22.7891 17.8304 22.5801 17.7476 22.377C17.7117 22.2891 17.6332 22.2285 17.5249 22.2532C17.4182 22.2771 17.361 22.3522 17.3516 22.4572C17.3295 22.7047 17.3986 22.924 17.5701 23.1066C17.6017 23.1399 17.6477 23.1655 17.6913 23.1791C17.809 23.2167 17.9456 23.1202 17.9439 23.0059Z" fill="#F1F0EF"/>
<path d="M15.2865 23.5392C15.2038 23.5554 15.1193 23.5827 15.034 23.5861C14.6909 23.5998 14.4631 23.36 14.4844 23.0153C14.5143 22.5434 14.8676 22.272 15.3284 22.3659C15.5784 22.4171 15.7627 22.6415 15.802 22.941C15.8839 23.5699 15.3702 24.285 14.7515 24.4036C14.7447 24.4053 14.737 24.4079 14.7293 24.407C14.6858 24.3994 14.6423 24.3908 14.5988 24.3823C14.6303 24.3533 14.6576 24.314 14.6952 24.2978C14.9836 24.1724 15.2567 23.8225 15.2865 23.5392ZM15.3949 22.8702C15.3821 22.7968 15.377 22.6842 15.342 22.5818C15.2959 22.4461 15.1449 22.4137 15.0357 22.5084C14.9981 22.5408 14.964 22.586 14.9469 22.6321C14.8727 22.8275 14.8633 23.0281 14.9316 23.2277C14.9478 23.2747 14.9768 23.3216 15.0101 23.3592C15.0689 23.4257 15.1457 23.4377 15.2328 23.4146C15.3147 23.3924 15.3437 23.3318 15.3531 23.2602C15.3685 23.1433 15.3787 23.0255 15.3949 22.8702Z" fill="#F1F0EF"/>
<path d="M22.3565 10.5814C22.4589 10.467 22.4734 10.4679 22.5528 10.5788C22.7012 10.7853 22.8506 10.9918 23.0016 11.1966C23.0358 11.2427 23.0605 11.2768 22.9999 11.3246C22.941 11.3707 22.9018 11.3622 22.8676 11.3016C22.819 11.2154 22.7687 11.2086 22.6842 11.2709C22.278 11.5721 21.8684 11.8682 21.4562 12.1609C21.3675 12.224 21.3436 12.2778 21.4247 12.3606C21.4699 12.4066 21.4801 12.4485 21.4153 12.4962C21.3462 12.5466 21.3197 12.5065 21.2847 12.4578C21.1192 12.2232 20.9511 11.9894 20.7761 11.7445C20.8103 11.7146 20.847 11.6822 20.8854 11.6472C20.9067 11.6634 20.9246 11.6719 20.934 11.6856C21.0577 11.8656 21.0646 11.8187 21.1994 11.7223C21.5868 11.4458 21.9716 11.1668 22.3565 10.886C22.4905 10.7887 22.4879 10.7862 22.3932 10.6462C22.3787 10.6249 22.3676 10.6018 22.3565 10.5814Z" fill="#F1F0EF"/>
<path d="M16.116 22.7627C16.1075 22.8719 16.0989 22.9743 16.0904 23.0827C16.2184 23.0938 16.343 23.0972 16.4642 23.1177C16.8968 23.1894 17.111 23.6152 16.9164 24.0094C16.7603 24.326 16.3583 24.5248 16.0153 24.4549C15.9974 24.4514 15.9786 24.448 15.9615 24.4429C15.8515 24.4071 15.7977 24.3397 15.8335 24.2722C15.8847 24.1775 15.959 24.233 16.0273 24.2509C16.1049 24.2705 16.1834 24.3013 16.2619 24.3013C16.4616 24.2995 16.6109 24.1724 16.6425 23.9949C16.6809 23.7782 16.5845 23.5674 16.3933 23.5051C16.2807 23.4675 16.1553 23.4599 16.0349 23.4547C15.9607 23.4513 15.9394 23.4317 15.9428 23.3592C15.9556 23.0784 15.9667 22.7977 15.9718 22.5169C15.9735 22.4435 15.9931 22.4137 16.0708 22.4094C16.2585 22.3992 16.4462 22.3761 16.634 22.365C16.733 22.3591 16.8021 22.3241 16.8396 22.2277C16.8482 22.2055 16.884 22.1935 16.907 22.1773C16.9164 22.2055 16.9361 22.2353 16.9326 22.2618C16.9139 22.3821 16.8959 22.5033 16.8618 22.6202C16.8516 22.656 16.7953 22.6987 16.756 22.703C16.5461 22.7277 16.3327 22.7431 16.116 22.7627Z" fill="#F1F0EF"/>
<path d="M13.1097 23.8984C13.1694 23.9138 13.2223 23.9283 13.2761 23.9394C13.399 23.9658 13.4382 23.9462 13.4724 23.8259C13.5645 23.4999 13.6516 23.1722 13.7412 22.8454C13.7625 22.7669 13.7847 22.6893 13.8035 22.6108C13.8222 22.534 13.7907 22.487 13.7104 22.4836C13.626 22.4802 13.5415 22.4828 13.416 22.4828C13.4527 22.4264 13.4689 22.3735 13.4945 22.3684C13.7616 22.3112 14.0296 22.2617 14.2975 22.2105C14.3078 22.2088 14.3189 22.214 14.3436 22.2182C14.3359 22.2566 14.3317 22.295 14.3214 22.3309C14.1815 22.8463 14.039 23.3617 13.8999 23.8771C13.8427 24.0879 13.8453 24.0887 14.0569 24.151C14.0774 24.157 14.0987 24.1647 14.1252 24.1732C14.1243 24.1928 14.1252 24.2108 14.1217 24.227C14.1183 24.244 14.1107 24.2611 14.1021 24.2876C13.7591 24.1954 13.4203 24.1032 13.0739 24.0102C13.0858 23.9693 13.0969 23.9368 13.1097 23.8984Z" fill="#F1F0EF"/>
<path d="M21.172 22.627C21.172 22.7388 21.0816 22.8318 20.9707 22.8344C20.8546 22.8369 20.7548 22.7414 20.7556 22.627C20.7556 22.5118 20.8555 22.4154 20.9707 22.4188C21.0807 22.4222 21.172 22.5152 21.172 22.627Z" fill="#F1F0EF"/>
<path d="M10.8586 22.8343C10.746 22.8335 10.6547 22.743 10.653 22.6312C10.6513 22.5143 10.7468 22.4179 10.862 22.4188C10.9772 22.4196 11.0728 22.5203 11.0694 22.6347C11.066 22.7447 10.9704 22.8352 10.8586 22.8343Z" fill="#F1F0EF"/>
</svg>
